<svg width="488" height="215" viewBox="0 0 488 215" fill="none" xmlns="http://www.w3.org/2000/svg">
<path d="M312.467 136.954L312.468 79.8995L255.415 136.954L312.467 136.954Z" fill="#5E5CE6"/>
<path d="M383.823 137.309V74.5987H321.112V137.309H383.823Z" fill="#FFD60A"/>
<path d="M182.899 74.4668L243.954 135.521L305.008 74.4675L182.899 74.4668Z" fill="#4DD0E1"/>
<path d="M161.166 137.954L104.113 80.9009L104.112 137.954L161.166 137.954Z" fill="#BF5AF2"/>
<path d="M232.522 137.31L169.811 74.5987H110.414L173.124 137.309L232.522 137.31Z" fill="#FF375F"/>
<path d="M96.343 24.657L6.00098 115L96.343 205.342V24.657Z" fill="#30D158"/>
<path d="M391 15.313L391 196L481.343 105.656L391 15.313Z" fill="#0A84FF"/>
<path d="M316.711 140.711H246L316.711 70V140.711Z" fill="white" fill-opacity="0.01"/>
<path d="M388.066 141.066H317.355V70.3554H388.066V141.066Z" fill="white" fill-opacity="0.01"/>
<path d="M173 70.7107H314.421L243.711 141.421L173 70.7107Z" fill="white" fill-opacity="0.01"/>
<path d="M171.066 140.711L100.355 140.711L100.355 70L171.066 140.711Z" fill="white" fill-opacity="0.01"/>
<path d="M242.421 141.066H171.711L101 70.3554H171.711L242.421 141.066Z" fill="white" fill-opacity="0.01"/>
<path d="M100 15V215L0 115L100 15Z" fill="white" fill-opacity="0.01"/>
<path d="M388 6L488 106L388 206L388 6Z" fill="white" fill-opacity="0.01"/>
</svg>
