<svg width="200" height="200" viewBox="0 0 200 200" fill="none" xmlns="http://www.w3.org/2000/svg">
<g clip-path="url(#clip0)">
<path fill-rule="evenodd" clip-rule="evenodd" d="M84.3221 93.4994C86.5977 89.7122 91.5125 88.4868 95.2997 90.7623L193.143 149.552C196.93 151.828 198.155 156.743 195.88 160.53L188.432 172.925C186.157 176.712 181.242 177.937 177.455 175.662L79.6117 116.872C75.8245 114.596 74.5991 109.681 76.8747 105.894L84.3221 93.4994Z" fill="#3A398F"/>
<path d="M126.839 86.4837C126.839 120.405 99.3407 147.903 65.4196 147.903C31.4985 147.903 4 120.405 4 86.4837C4 52.5626 31.4985 25.0641 65.4196 25.0641C99.3407 25.0641 126.839 52.5626 126.839 86.4837Z" fill="#5E5CE6" stroke="#3A398F" stroke-width="8"/>
<mask id="mask0" mask-type="alpha" maskUnits="userSpaceOnUse" x="0" y="21" width="131" height="131">
<path d="M126.839 86.4837C126.839 120.405 99.3407 147.903 65.4196 147.903C31.4985 147.903 4 120.405 4 86.4837C4 52.5626 31.4985 25.0641 65.4196 25.0641C99.3407 25.0641 126.839 52.5626 126.839 86.4837Z" fill="white" stroke="white" stroke-width="8"/>
</mask>
<g mask="url(#mask0)">
<path fill-rule="evenodd" clip-rule="evenodd" d="M66.1309 55.4235C63.7421 51.2977 65.1478 44.7701 73.2301 45.1936C81.3123 45.6172 89.7943 52.4486 92.3112 56.7955C94.8281 61.1425 94.3094 68.0069 86.1926 67.5816C78.0757 67.1562 68.5197 59.5493 66.1309 55.4235Z" fill="white"/>
</g>
</g>
<defs>
<clipPath id="clip0">
<rect width="200" height="200" fill="white"/>
</clipPath>
</defs>
</svg>
