<svg width="200" height="200" viewBox="0 0 200 200" fill="none" xmlns="http://www.w3.org/2000/svg">
<path fill-rule="evenodd" clip-rule="evenodd" d="M100.418 200C128.942 200 152.066 188.684 152.066 174.725C152.066 160.766 128.942 149.451 100.418 149.451C71.8929 149.451 48.7692 160.766 48.7692 174.725C48.7692 188.684 71.8929 200 100.418 200Z" fill="#B12B46"/>
<path fill-rule="evenodd" clip-rule="evenodd" d="M100.418 164.835C145.936 164.835 182.835 127.936 182.835 82.4176C182.835 36.8996 145.936 0 100.418 0C54.8996 0 18 36.8996 18 82.4176C18 127.936 54.8996 164.835 100.418 164.835Z" fill="#FF375F"/>
<path fill-rule="evenodd" clip-rule="evenodd" d="M66.7094 41.3741C72.3798 37.6379 81.7363 39.1634 81.7363 50.7871C81.7363 62.4108 72.6837 75.0895 66.7094 79.0261C60.7351 82.9626 50.967 82.7347 50.967 71.0612C50.967 59.3878 61.0391 45.1104 66.7094 41.3741Z" fill="#F8FBFF" fill-opacity="0.6"/>
<path fill-rule="evenodd" clip-rule="evenodd" d="M66.7094 41.3741C72.3798 37.6379 81.7363 39.1634 81.7363 50.7871C81.7363 62.4108 72.6837 75.0895 66.7094 79.0261C60.7351 82.9626 50.967 82.7347 50.967 71.0612C50.967 59.3878 61.0391 45.1104 66.7094 41.3741Z" fill="white" fill-opacity="0.8"/>
</svg>
