<svg width="200" height="200" viewBox="0 0 200 200" fill="none" xmlns="http://www.w3.org/2000/svg">
<rect x="110" y="30" width="80" height="140" fill="#C4C4C4"/>
<path d="M67.4219 125.156C67.4219 122.969 67.0833 121.042 66.4062 119.375C65.7812 117.656 64.7396 116.094 63.2812 114.688C61.875 113.281 60 112.005 57.6562 110.859C55.3646 109.661 52.5781 108.49 49.2969 107.344C44.0365 105.469 39.2448 103.49 34.9219 101.406C30.599 99.3229 26.901 96.901 23.8281 94.1406C20.8073 91.3802 18.4635 88.1771 16.7969 84.5312C15.1302 80.8333 14.2969 76.4583 14.2969 71.4062C14.2969 66.9792 15.0521 62.9427 16.5625 59.2969C18.0729 55.599 20.2083 52.3958 22.9688 49.6875C25.7292 46.9792 29.0625 44.7917 32.9688 43.125C36.875 41.4583 41.224 40.3906 46.0156 39.9219V23.125H58.5156V40.0781C63.2031 40.7031 67.4219 41.9792 71.1719 43.9062C74.9219 45.8333 78.099 48.3594 80.7031 51.4844C83.3594 54.5573 85.3906 58.2031 86.7969 62.4219C88.2552 66.5885 88.9844 71.276 88.9844 76.4844H67.2656C67.2656 70.1823 65.8333 65.4167 62.9688 62.1875C60.1042 58.9062 56.224 57.2656 51.3281 57.2656C48.6719 57.2656 46.3542 57.6302 44.375 58.3594C42.4479 59.0365 40.8594 60.026 39.6094 61.3281C38.3594 62.5781 37.4219 64.0625 36.7969 65.7812C36.224 67.5 35.9375 69.375 35.9375 71.4062C35.9375 73.4375 36.224 75.2604 36.7969 76.875C37.4219 78.4375 38.4375 79.8958 39.8438 81.25C41.3021 82.6042 43.2031 83.9062 45.5469 85.1562C47.8906 86.3542 50.8073 87.5781 54.2969 88.8281C59.5573 90.8073 64.3229 92.8646 68.5938 95C72.8646 97.0833 76.5104 99.5312 79.5312 102.344C82.6042 105.104 84.9479 108.333 86.5625 112.031C88.2292 115.677 89.0625 120 89.0625 125C89.0625 129.583 88.3073 133.724 86.7969 137.422C85.2865 141.068 83.125 144.219 80.3125 146.875C77.5 149.531 74.1146 151.667 70.1562 153.281C66.1979 154.844 61.7708 155.859 56.875 156.328V171.641H44.4531V156.328C40.026 155.911 35.7292 154.948 31.5625 153.438C27.3958 151.875 23.6979 149.635 20.4688 146.719C17.2917 143.802 14.7396 140.13 12.8125 135.703C10.8854 131.224 9.92188 125.859 9.92188 119.609H31.7188C31.7188 123.359 32.2656 126.51 33.3594 129.062C34.4531 131.562 35.8594 133.568 37.5781 135.078C39.349 136.536 41.3542 137.578 43.5938 138.203C45.8333 138.828 48.125 139.141 50.4688 139.141C56.0417 139.141 60.2604 137.839 63.125 135.234C65.9896 132.63 67.4219 129.271 67.4219 125.156Z" fill="#FF375F"/>
</svg>
