<svg width="200" height="200" viewBox="0 0 200 200" fill="none" xmlns="http://www.w3.org/2000/svg">
<path fill-rule="evenodd" clip-rule="evenodd" d="M158.5 163.661L158.5 35.3395L158.5 163.661Z" fill="#723691"/>
<path d="M158.5 163.661L158.5 35.3395" stroke="#723691" stroke-width="20" stroke-linecap="round"/>
<path fill-rule="evenodd" clip-rule="evenodd" d="M180 80.3167C180 68.4425 170.374 58.8167 158.5 58.8167C146.626 58.8167 137 68.4425 137 80.3167C137 92.1908 146.626 101.817 158.5 101.817C170.374 101.817 180 92.1908 180 80.3167Z" fill="#BF5AF2"/>
<path fill-rule="evenodd" clip-rule="evenodd" d="M99.5 163.661L99.5 35.3395L99.5 163.661Z" fill="#723691"/>
<path d="M99.5 163.661L99.5 35.3395" stroke="#723691" stroke-width="20" stroke-linecap="round"/>
<path fill-rule="evenodd" clip-rule="evenodd" d="M121 130.317C121 118.443 111.374 108.817 99.5 108.817C87.6259 108.817 78 118.443 78 130.317C78 142.191 87.6259 151.817 99.5 151.817C111.374 151.817 121 142.191 121 130.317Z" fill="#BF5AF2"/>
<path fill-rule="evenodd" clip-rule="evenodd" d="M40.5 163.661L40.5 35.3395Z" fill="#723691"/>
<path d="M40.5 163.661L40.5 35.3395" stroke="#723691" stroke-width="20" stroke-linecap="round"/>
<path fill-rule="evenodd" clip-rule="evenodd" d="M62 70.3167C62 58.4425 52.3741 48.8167 40.5 48.8167C28.6259 48.8167 19 58.4425 19 70.3167C19 82.1908 28.6259 91.8167 40.5 91.8167C52.3741 91.8167 62 82.1908 62 70.3167Z" fill="#BF5AF2"/>
</svg>
