<svg width="2292" height="1578" viewBox="0 0 2292 1578" fill="none" xmlns="http://www.w3.org/2000/svg">
<rect x="465" y="80" width="100" height="100" rx="50" fill="#0A84FF"/>
<rect x="315" y="230" width="100" height="100" rx="50" fill="#0A84FF"/>
<rect x="240" y="380" width="100" height="100" rx="50" fill="#0A84FF"/>
<rect x="390" y="380" width="100" height="100" rx="50" fill="#C4C4C4"/>
<rect x="615" y="230" width="100" height="100" rx="50" fill="#C4C4C4"/>
<line x1="568.523" y1="193.698" x2="602.698" y2="222.477" stroke="#C4C4C4" stroke-width="5" stroke-linecap="round" stroke-linejoin="round"/>
<line x1="2.5" y1="-2.5" x2="47.179" y2="-2.5" transform="matrix(-0.764911 0.644136 0.644136 0.764911 465 194)" stroke="#0A84FF" stroke-width="5" stroke-linecap="round" stroke-linejoin="round"/>
<line x1="315.873" y1="342.426" x2="299.426" y2="370.127" stroke="#0A84FF" stroke-width="5" stroke-linecap="round" stroke-linejoin="round"/>
<line x1="2.5" y1="-2.5" x2="34.7156" y2="-2.5" transform="matrix(0.510539 0.859855 0.859855 -0.510539 415 339)" stroke="#C4C4C4" stroke-width="5" stroke-linecap="round" stroke-linejoin="round"/>
<rect x="1167" y="80" width="100" height="100" rx="50" fill="#0A84FF"/>
<rect x="1017" y="230" width="100" height="100" rx="50" fill="#0A84FF"/>
<rect x="942" y="380" width="100" height="100" rx="50" fill="#0A84FF"/>
<rect x="1092" y="380" width="100" height="100" rx="50" fill="#C4C4C4"/>
<rect x="1317" y="230" width="100" height="100" rx="50" fill="#C4C4C4"/>
<line x1="1270.52" y1="193.698" x2="1304.7" y2="222.477" stroke="#C4C4C4" stroke-width="5" stroke-linecap="round" stroke-linejoin="round"/>
<line x1="2.5" y1="-2.5" x2="47.179" y2="-2.5" transform="matrix(-0.764911 0.644136 0.644136 0.764911 1167 194)" stroke="#0A84FF" stroke-width="5" stroke-linecap="round" stroke-linejoin="round"/>
<line x1="1017.87" y1="342.426" x2="1001.43" y2="370.127" stroke="#0A84FF" stroke-width="5" stroke-linecap="round" stroke-linejoin="round"/>
<line x1="2.5" y1="-2.5" x2="34.7156" y2="-2.5" transform="matrix(0.510539 0.859855 0.859855 -0.510539 1117 339)" stroke="#C4C4C4" stroke-width="5" stroke-linecap="round" stroke-linejoin="round"/>
<path d="M458.935 15.8574C457.782 15.8574 456.752 16.1113 455.844 16.6191C454.945 17.1172 454.174 17.8008 453.529 18.6699L453.515 18.2744L453.397 16.1504H450.819V32H453.544V21.834C453.72 21.3457 453.939 20.9062 454.203 20.5156C454.477 20.1152 454.794 19.7783 455.155 19.5049C455.556 19.1924 456.024 18.958 456.562 18.8018C457.099 18.6357 457.699 18.5527 458.363 18.5527C458.881 18.5527 459.374 18.582 459.843 18.6406C460.321 18.6895 460.824 18.7725 461.352 18.8896L461.718 16.2383C461.444 16.1211 461.034 16.0283 460.487 15.96C459.95 15.8916 459.433 15.8574 458.935 15.8574ZM465.805 23.9287V24.251C465.805 25.3936 465.971 26.4531 466.303 27.4297C466.635 28.4062 467.113 29.2559 467.738 29.9785C468.354 30.7012 469.105 31.2676 469.994 31.6777C470.893 32.0879 471.903 32.293 473.026 32.293C474.14 32.293 475.141 32.0879 476.029 31.6777C476.918 31.2676 477.675 30.7012 478.3 29.9785C478.915 29.2559 479.389 28.4062 479.721 27.4297C480.053 26.4531 480.219 25.3936 480.219 24.251V23.9287C480.219 22.7861 480.053 21.7266 479.721 20.75C479.389 19.7637 478.915 18.9092 478.3 18.1865C477.675 17.4639 476.913 16.8975 476.015 16.4873C475.126 16.0674 474.12 15.8574 472.997 15.8574C471.884 15.8574 470.883 16.0674 469.994 16.4873C469.105 16.8975 468.354 17.4639 467.738 18.1865C467.113 18.9092 466.635 19.7637 466.303 20.75C465.971 21.7266 465.805 22.7861 465.805 23.9287ZM468.515 24.251V23.9287C468.515 23.1572 468.607 22.4199 468.793 21.7168C468.979 21.0039 469.262 20.3789 469.643 19.8418C470.014 19.3047 470.478 18.8799 471.034 18.5674C471.591 18.2451 472.245 18.084 472.997 18.084C473.749 18.084 474.403 18.2451 474.96 18.5674C475.526 18.8799 476 19.3047 476.381 19.8418C476.752 20.3789 477.03 21.0039 477.216 21.7168C477.411 22.4199 477.509 23.1572 477.509 23.9287V24.251C477.509 25.0322 477.416 25.7793 477.23 26.4922C477.045 27.1953 476.767 27.8154 476.396 28.3525C476.015 28.8896 475.541 29.3145 474.975 29.627C474.418 29.9395 473.769 30.0957 473.026 30.0957C472.274 30.0957 471.615 29.9395 471.049 29.627C470.482 29.3145 470.014 28.8896 469.643 28.3525C469.262 27.8154 468.979 27.1953 468.793 26.4922C468.607 25.7793 468.515 25.0322 468.515 24.251ZM495.028 32H497.489V16.1504H494.765V27.5176C494.618 27.8594 494.433 28.1768 494.208 28.4697C493.993 28.7529 493.739 28.9971 493.446 29.2021C493.095 29.4561 492.68 29.6562 492.201 29.8027C491.723 29.9395 491.181 30.0078 490.575 30.0078C490.058 30.0078 489.599 29.9395 489.198 29.8027C488.808 29.666 488.476 29.4268 488.202 29.085C487.929 28.7529 487.724 28.3037 487.587 27.7373C487.45 27.1709 487.382 26.458 487.382 25.5986V16.1504H484.672V25.5693C484.672 26.751 484.799 27.7666 485.053 28.6162C485.316 29.4561 485.688 30.1494 486.166 30.6963C486.645 31.2432 487.221 31.6484 487.895 31.9121C488.568 32.166 489.32 32.293 490.15 32.293C491.186 32.293 492.099 32.0781 492.89 31.6484C493.681 31.209 494.34 30.5986 494.867 29.8174L495.028 32ZM502.602 32H505.312V20.6328C505.497 20.291 505.712 19.9785 505.956 19.6953C506.21 19.4121 506.483 19.1631 506.776 18.9482C507.138 18.7041 507.533 18.5137 507.963 18.377C508.393 18.2305 508.856 18.1572 509.354 18.1572C509.931 18.1572 510.438 18.2256 510.878 18.3623C511.327 18.499 511.708 18.7188 512.021 19.0215C512.323 19.3242 512.553 19.7197 512.709 20.208C512.865 20.6963 512.943 21.292 512.943 21.9951V32H515.653V21.9365C515.653 20.8818 515.521 19.9736 515.258 19.2119C515.004 18.4404 514.638 17.8057 514.159 17.3076C513.681 16.8096 513.1 16.4434 512.416 16.209C511.742 15.9746 510.99 15.8574 510.16 15.8574C509.545 15.8672 508.959 15.96 508.402 16.1357C507.855 16.3018 507.348 16.541 506.879 16.8535C506.566 17.0586 506.269 17.3027 505.985 17.5859C505.712 17.8594 505.458 18.1621 505.224 18.4941L505.033 16.1504H502.602V32ZM520.106 23.9434V24.251C520.106 25.3838 520.258 26.4434 520.561 27.4297C520.863 28.4062 521.288 29.2559 521.835 29.9785C522.382 30.7012 523.041 31.2676 523.812 31.6777C524.594 32.0879 525.463 32.293 526.42 32.293C527.396 32.293 528.251 32.127 528.983 31.7949C529.716 31.4629 530.346 30.9746 530.873 30.3301L530.99 32H533.48V9.5H530.771V17.7178C530.253 17.1123 529.638 16.6533 528.925 16.3408C528.222 16.0186 527.396 15.8574 526.449 15.8574C525.482 15.8574 524.608 16.0576 523.827 16.458C523.046 16.8584 522.382 17.415 521.835 18.1279C521.278 18.8408 520.849 19.6953 520.546 20.6914C520.253 21.6777 520.106 22.7617 520.106 23.9434ZM522.816 24.251V23.9434C522.816 23.1719 522.899 22.4395 523.065 21.7461C523.231 21.043 523.49 20.4229 523.842 19.8857C524.184 19.3584 524.623 18.9385 525.16 18.626C525.707 18.3135 526.361 18.1572 527.123 18.1572C528.012 18.1572 528.754 18.3672 529.35 18.7871C529.945 19.1973 530.419 19.7246 530.771 20.3691V27.7227C530.419 28.416 529.945 28.9678 529.35 29.3779C528.754 29.7881 528.002 29.9932 527.094 29.9932C526.342 29.9932 525.697 29.8418 525.16 29.5391C524.623 29.2266 524.184 28.8066 523.842 28.2793C523.49 27.752 523.231 27.1416 523.065 26.4482C522.899 25.7549 522.816 25.0225 522.816 24.251ZM551.791 34.2119V32H538.358V34.2119H551.791ZM565.443 32V10.6719H565.224L557.152 13.7773V16.2529L562.733 14.1289V32H565.443Z" fill="black"/>
<path d="M1160.93 15.8574C1159.78 15.8574 1158.75 16.1113 1157.84 16.6191C1156.95 17.1172 1156.17 17.8008 1155.53 18.6699L1155.51 18.2744L1155.4 16.1504H1152.82V32H1155.54V21.834C1155.72 21.3457 1155.94 20.9062 1156.2 20.5156C1156.48 20.1152 1156.79 19.7783 1157.16 19.5049C1157.56 19.1924 1158.02 18.958 1158.56 18.8018C1159.1 18.6357 1159.7 18.5527 1160.36 18.5527C1160.88 18.5527 1161.37 18.582 1161.84 18.6406C1162.32 18.6895 1162.82 18.7725 1163.35 18.8896L1163.72 16.2383C1163.44 16.1211 1163.03 16.0283 1162.49 15.96C1161.95 15.8916 1161.43 15.8574 1160.93 15.8574ZM1167.8 23.9287V24.251C1167.8 25.3936 1167.97 26.4531 1168.3 27.4297C1168.63 28.4062 1169.11 29.2559 1169.74 29.9785C1170.35 30.7012 1171.11 31.2676 1171.99 31.6777C1172.89 32.0879 1173.9 32.293 1175.03 32.293C1176.14 32.293 1177.14 32.0879 1178.03 31.6777C1178.92 31.2676 1179.67 30.7012 1180.3 29.9785C1180.92 29.2559 1181.39 28.4062 1181.72 27.4297C1182.05 26.4531 1182.22 25.3936 1182.22 24.251V23.9287C1182.22 22.7861 1182.05 21.7266 1181.72 20.75C1181.39 19.7637 1180.92 18.9092 1180.3 18.1865C1179.67 17.4639 1178.91 16.8975 1178.01 16.4873C1177.13 16.0674 1176.12 15.8574 1175 15.8574C1173.88 15.8574 1172.88 16.0674 1171.99 16.4873C1171.11 16.8975 1170.35 17.4639 1169.74 18.1865C1169.11 18.9092 1168.63 19.7637 1168.3 20.75C1167.97 21.7266 1167.8 22.7861 1167.8 23.9287ZM1170.51 24.251V23.9287C1170.51 23.1572 1170.61 22.4199 1170.79 21.7168C1170.98 21.0039 1171.26 20.3789 1171.64 19.8418C1172.01 19.3047 1172.48 18.8799 1173.03 18.5674C1173.59 18.2451 1174.25 18.084 1175 18.084C1175.75 18.084 1176.4 18.2451 1176.96 18.5674C1177.53 18.8799 1178 19.3047 1178.38 19.8418C1178.75 20.3789 1179.03 21.0039 1179.22 21.7168C1179.41 22.4199 1179.51 23.1572 1179.51 23.9287V24.251C1179.51 25.0322 1179.42 25.7793 1179.23 26.4922C1179.04 27.1953 1178.77 27.8154 1178.4 28.3525C1178.01 28.8896 1177.54 29.3145 1176.97 29.627C1176.42 29.9395 1175.77 30.0957 1175.03 30.0957C1174.27 30.0957 1173.62 29.9395 1173.05 29.627C1172.48 29.3145 1172.01 28.8896 1171.64 28.3525C1171.26 27.8154 1170.98 27.1953 1170.79 26.4922C1170.61 25.7793 1170.51 25.0322 1170.51 24.251ZM1197.03 32H1199.49V16.1504H1196.76V27.5176C1196.62 27.8594 1196.43 28.1768 1196.21 28.4697C1195.99 28.7529 1195.74 28.9971 1195.45 29.2021C1195.09 29.4561 1194.68 29.6562 1194.2 29.8027C1193.72 29.9395 1193.18 30.0078 1192.58 30.0078C1192.06 30.0078 1191.6 29.9395 1191.2 29.8027C1190.81 29.666 1190.48 29.4268 1190.2 29.085C1189.93 28.7529 1189.72 28.3037 1189.59 27.7373C1189.45 27.1709 1189.38 26.458 1189.38 25.5986V16.1504H1186.67V25.5693C1186.67 26.751 1186.8 27.7666 1187.05 28.6162C1187.32 29.4561 1187.69 30.1494 1188.17 30.6963C1188.64 31.2432 1189.22 31.6484 1189.89 31.9121C1190.57 32.166 1191.32 32.293 1192.15 32.293C1193.19 32.293 1194.1 32.0781 1194.89 31.6484C1195.68 31.209 1196.34 30.5986 1196.87 29.8174L1197.03 32ZM1204.6 32H1207.31V20.6328C1207.5 20.291 1207.71 19.9785 1207.96 19.6953C1208.21 19.4121 1208.48 19.1631 1208.78 18.9482C1209.14 18.7041 1209.53 18.5137 1209.96 18.377C1210.39 18.2305 1210.86 18.1572 1211.35 18.1572C1211.93 18.1572 1212.44 18.2256 1212.88 18.3623C1213.33 18.499 1213.71 18.7188 1214.02 19.0215C1214.32 19.3242 1214.55 19.7197 1214.71 20.208C1214.87 20.6963 1214.94 21.292 1214.94 21.9951V32H1217.65V21.9365C1217.65 20.8818 1217.52 19.9736 1217.26 19.2119C1217 18.4404 1216.64 17.8057 1216.16 17.3076C1215.68 16.8096 1215.1 16.4434 1214.42 16.209C1213.74 15.9746 1212.99 15.8574 1212.16 15.8574C1211.54 15.8672 1210.96 15.96 1210.4 16.1357C1209.86 16.3018 1209.35 16.541 1208.88 16.8535C1208.57 17.0586 1208.27 17.3027 1207.99 17.5859C1207.71 17.8594 1207.46 18.1621 1207.22 18.4941L1207.03 16.1504H1204.6V32ZM1222.11 23.9434V24.251C1222.11 25.3838 1222.26 26.4434 1222.56 27.4297C1222.86 28.4062 1223.29 29.2559 1223.83 29.9785C1224.38 30.7012 1225.04 31.2676 1225.81 31.6777C1226.59 32.0879 1227.46 32.293 1228.42 32.293C1229.4 32.293 1230.25 32.127 1230.98 31.7949C1231.72 31.4629 1232.35 30.9746 1232.87 30.3301L1232.99 32H1235.48V9.5H1232.77V17.7178C1232.25 17.1123 1231.64 16.6533 1230.92 16.3408C1230.22 16.0186 1229.4 15.8574 1228.45 15.8574C1227.48 15.8574 1226.61 16.0576 1225.83 16.458C1225.05 16.8584 1224.38 17.415 1223.83 18.1279C1223.28 18.8408 1222.85 19.6953 1222.55 20.6914C1222.25 21.6777 1222.11 22.7617 1222.11 23.9434ZM1224.82 24.251V23.9434C1224.82 23.1719 1224.9 22.4395 1225.07 21.7461C1225.23 21.043 1225.49 20.4229 1225.84 19.8857C1226.18 19.3584 1226.62 18.9385 1227.16 18.626C1227.71 18.3135 1228.36 18.1572 1229.12 18.1572C1230.01 18.1572 1230.75 18.3672 1231.35 18.7871C1231.95 19.1973 1232.42 19.7246 1232.77 20.3691V27.7227C1232.42 28.416 1231.95 28.9678 1231.35 29.3779C1230.75 29.7881 1230 29.9932 1229.09 29.9932C1228.34 29.9932 1227.7 29.8418 1227.16 29.5391C1226.62 29.2266 1226.18 28.8066 1225.84 28.2793C1225.49 27.752 1225.23 27.1416 1225.07 26.4482C1224.9 25.7549 1224.82 25.0225 1224.82 24.251ZM1253.79 34.2119V32H1240.36V34.2119H1253.79ZM1271.74 32V29.7881H1261.03L1266.75 23.5771C1267.29 22.9912 1267.8 22.4053 1268.28 21.8193C1268.77 21.2236 1269.2 20.623 1269.57 20.0176C1269.93 19.4121 1270.22 18.8018 1270.43 18.1865C1270.65 17.5615 1270.75 16.9316 1270.75 16.2969C1270.75 15.4473 1270.6 14.6611 1270.3 13.9385C1270.01 13.2158 1269.58 12.5908 1269.03 12.0635C1268.47 11.5361 1267.79 11.126 1266.97 10.833C1266.17 10.5303 1265.27 10.3789 1264.26 10.3789C1263.17 10.3789 1262.19 10.5547 1261.33 10.9062C1260.49 11.2578 1259.77 11.7314 1259.18 12.3271C1258.59 12.9229 1258.13 13.6211 1257.82 14.4219C1257.51 15.2129 1257.35 16.0576 1257.35 16.9561H1260.08C1260.08 16.292 1260.16 15.6914 1260.32 15.1543C1260.5 14.6172 1260.76 14.1582 1261.12 13.7773C1261.46 13.4063 1261.89 13.1182 1262.4 12.9131C1262.93 12.708 1263.55 12.6055 1264.26 12.6055C1264.85 12.6055 1265.37 12.708 1265.83 12.9131C1266.3 13.1084 1266.7 13.377 1267.03 13.7188C1267.36 14.0605 1267.6 14.4658 1267.77 14.9346C1267.94 15.3936 1268.03 15.8867 1268.03 16.4141C1268.03 16.8438 1267.98 17.2637 1267.87 17.6738C1267.76 18.0742 1267.58 18.499 1267.33 18.9482C1267.07 19.4072 1266.74 19.9053 1266.32 20.4424C1265.9 20.9795 1265.37 21.5947 1264.75 22.2881L1257.76 30.0518V32H1271.74Z" fill="black"/>
<path d="M1960.93 15.8574C1959.78 15.8574 1958.75 16.1113 1957.84 16.6191C1956.95 17.1172 1956.17 17.8008 1955.53 18.6699L1955.51 18.2744L1955.4 16.1504H1952.82V32H1955.54V21.834C1955.72 21.3457 1955.94 20.9062 1956.2 20.5156C1956.48 20.1152 1956.79 19.7783 1957.16 19.5049C1957.56 19.1924 1958.02 18.958 1958.56 18.8018C1959.1 18.6357 1959.7 18.5527 1960.36 18.5527C1960.88 18.5527 1961.37 18.582 1961.84 18.6406C1962.32 18.6895 1962.82 18.7725 1963.35 18.8896L1963.72 16.2383C1963.44 16.1211 1963.03 16.0283 1962.49 15.96C1961.95 15.8916 1961.43 15.8574 1960.93 15.8574ZM1967.8 23.9287V24.251C1967.8 25.3936 1967.97 26.4531 1968.3 27.4297C1968.63 28.4062 1969.11 29.2559 1969.74 29.9785C1970.35 30.7012 1971.11 31.2676 1971.99 31.6777C1972.89 32.0879 1973.9 32.293 1975.03 32.293C1976.14 32.293 1977.14 32.0879 1978.03 31.6777C1978.92 31.2676 1979.67 30.7012 1980.3 29.9785C1980.92 29.2559 1981.39 28.4062 1981.72 27.4297C1982.05 26.4531 1982.22 25.3936 1982.22 24.251V23.9287C1982.22 22.7861 1982.05 21.7266 1981.72 20.75C1981.39 19.7637 1980.92 18.9092 1980.3 18.1865C1979.67 17.4639 1978.91 16.8975 1978.01 16.4873C1977.13 16.0674 1976.12 15.8574 1975 15.8574C1973.88 15.8574 1972.88 16.0674 1971.99 16.4873C1971.11 16.8975 1970.35 17.4639 1969.74 18.1865C1969.11 18.9092 1968.63 19.7637 1968.3 20.75C1967.97 21.7266 1967.8 22.7861 1967.8 23.9287ZM1970.51 24.251V23.9287C1970.51 23.1572 1970.61 22.4199 1970.79 21.7168C1970.98 21.0039 1971.26 20.3789 1971.64 19.8418C1972.01 19.3047 1972.48 18.8799 1973.03 18.5674C1973.59 18.2451 1974.25 18.084 1975 18.084C1975.75 18.084 1976.4 18.2451 1976.96 18.5674C1977.53 18.8799 1978 19.3047 1978.38 19.8418C1978.75 20.3789 1979.03 21.0039 1979.22 21.7168C1979.41 22.4199 1979.51 23.1572 1979.51 23.9287V24.251C1979.51 25.0322 1979.42 25.7793 1979.23 26.4922C1979.04 27.1953 1978.77 27.8154 1978.4 28.3525C1978.01 28.8896 1977.54 29.3145 1976.97 29.627C1976.42 29.9395 1975.77 30.0957 1975.03 30.0957C1974.27 30.0957 1973.62 29.9395 1973.05 29.627C1972.48 29.3145 1972.01 28.8896 1971.64 28.3525C1971.26 27.8154 1970.98 27.1953 1970.79 26.4922C1970.61 25.7793 1970.51 25.0322 1970.51 24.251ZM1997.03 32H1999.49V16.1504H1996.76V27.5176C1996.62 27.8594 1996.43 28.1768 1996.21 28.4697C1995.99 28.7529 1995.74 28.9971 1995.45 29.2021C1995.09 29.4561 1994.68 29.6562 1994.2 29.8027C1993.72 29.9395 1993.18 30.0078 1992.58 30.0078C1992.06 30.0078 1991.6 29.9395 1991.2 29.8027C1990.81 29.666 1990.48 29.4268 1990.2 29.085C1989.93 28.7529 1989.72 28.3037 1989.59 27.7373C1989.45 27.1709 1989.38 26.458 1989.38 25.5986V16.1504H1986.67V25.5693C1986.67 26.751 1986.8 27.7666 1987.05 28.6162C1987.32 29.4561 1987.69 30.1494 1988.17 30.6963C1988.64 31.2432 1989.22 31.6484 1989.89 31.9121C1990.57 32.166 1991.32 32.293 1992.15 32.293C1993.19 32.293 1994.1 32.0781 1994.89 31.6484C1995.68 31.209 1996.34 30.5986 1996.87 29.8174L1997.03 32ZM2004.6 32H2007.31V20.6328C2007.5 20.291 2007.71 19.9785 2007.96 19.6953C2008.21 19.4121 2008.48 19.1631 2008.78 18.9482C2009.14 18.7041 2009.53 18.5137 2009.96 18.377C2010.39 18.2305 2010.86 18.1572 2011.35 18.1572C2011.93 18.1572 2012.44 18.2256 2012.88 18.3623C2013.33 18.499 2013.71 18.7188 2014.02 19.0215C2014.32 19.3242 2014.55 19.7197 2014.71 20.208C2014.87 20.6963 2014.94 21.292 2014.94 21.9951V32H2017.65V21.9365C2017.65 20.8818 2017.52 19.9736 2017.26 19.2119C2017 18.4404 2016.64 17.8057 2016.16 17.3076C2015.68 16.8096 2015.1 16.4434 2014.42 16.209C2013.74 15.9746 2012.99 15.8574 2012.16 15.8574C2011.54 15.8672 2010.96 15.96 2010.4 16.1357C2009.86 16.3018 2009.35 16.541 2008.88 16.8535C2008.57 17.0586 2008.27 17.3027 2007.99 17.5859C2007.71 17.8594 2007.46 18.1621 2007.22 18.4941L2007.03 16.1504H2004.6V32ZM2022.11 23.9434V24.251C2022.11 25.3838 2022.26 26.4434 2022.56 27.4297C2022.86 28.4062 2023.29 29.2559 2023.83 29.9785C2024.38 30.7012 2025.04 31.2676 2025.81 31.6777C2026.59 32.0879 2027.46 32.293 2028.42 32.293C2029.4 32.293 2030.25 32.127 2030.98 31.7949C2031.72 31.4629 2032.35 30.9746 2032.87 30.3301L2032.99 32H2035.48V9.5H2032.77V17.7178C2032.25 17.1123 2031.64 16.6533 2030.92 16.3408C2030.22 16.0186 2029.4 15.8574 2028.45 15.8574C2027.48 15.8574 2026.61 16.0576 2025.83 16.458C2025.05 16.8584 2024.38 17.415 2023.83 18.1279C2023.28 18.8408 2022.85 19.6953 2022.55 20.6914C2022.25 21.6777 2022.11 22.7617 2022.11 23.9434ZM2024.82 24.251V23.9434C2024.82 23.1719 2024.9 22.4395 2025.07 21.7461C2025.23 21.043 2025.49 20.4229 2025.84 19.8857C2026.18 19.3584 2026.62 18.9385 2027.16 18.626C2027.71 18.3135 2028.36 18.1572 2029.12 18.1572C2030.01 18.1572 2030.75 18.3672 2031.35 18.7871C2031.95 19.1973 2032.42 19.7246 2032.77 20.3691V27.7227C2032.42 28.416 2031.95 28.9678 2031.35 29.3779C2030.75 29.7881 2030 29.9932 2029.09 29.9932C2028.34 29.9932 2027.7 29.8418 2027.16 29.5391C2026.62 29.2266 2026.18 28.8066 2025.84 28.2793C2025.49 27.752 2025.23 27.1416 2025.07 26.4482C2024.9 25.7549 2024.82 25.0225 2024.82 24.251ZM2053.79 34.2119V32H2040.36V34.2119H2053.79ZM2059.9 16.1504H2057.47V32H2060.05V19.3877C2060.1 19.2314 2060.18 19.085 2060.27 18.9482C2060.36 18.8115 2060.48 18.6895 2060.6 18.582C2060.77 18.4453 2060.97 18.3428 2061.2 18.2744C2061.45 18.1963 2061.73 18.1572 2062.05 18.1572C2062.35 18.1572 2062.6 18.1963 2062.81 18.2744C2063.04 18.3428 2063.22 18.4551 2063.37 18.6113C2063.53 18.7773 2063.64 18.9873 2063.71 19.2412C2063.79 19.4951 2063.83 19.7881 2063.83 20.1201V32H2066.4V20.1348C2066.4 20.0762 2066.4 20.0273 2066.4 19.9883C2066.4 19.9395 2066.4 19.8906 2066.4 19.8418C2066.43 19.5977 2066.49 19.3779 2066.58 19.1826C2066.67 18.9775 2066.79 18.7969 2066.95 18.6406C2067.1 18.4941 2067.3 18.377 2067.53 18.2891C2067.77 18.2012 2068.04 18.1572 2068.37 18.1572C2068.67 18.1572 2068.93 18.1963 2069.16 18.2744C2069.39 18.3525 2069.59 18.4697 2069.74 18.626C2069.89 18.792 2070 19.002 2070.08 19.2559C2070.16 19.5098 2070.2 19.8027 2070.2 20.1348V32H2072.78V20.1641C2072.78 19.4023 2072.69 18.7432 2072.51 18.1865C2072.34 17.6201 2072.08 17.1611 2071.75 16.8096C2071.45 16.4971 2071.08 16.2627 2070.64 16.1064C2070.2 15.9404 2069.7 15.8574 2069.16 15.8574C2068.76 15.8672 2068.39 15.9209 2068.04 16.0186C2067.71 16.1162 2067.41 16.248 2067.14 16.4141C2066.92 16.5605 2066.72 16.7314 2066.54 16.9268C2066.35 17.1221 2066.19 17.332 2066.05 17.5566C2065.94 17.3125 2065.81 17.0928 2065.66 16.8975C2065.51 16.7021 2065.34 16.5361 2065.16 16.3994C2064.9 16.2236 2064.61 16.0918 2064.26 16.0039C2063.93 15.9062 2063.56 15.8574 2063.14 15.8574C2062.39 15.8672 2061.76 16.0283 2061.23 16.3408C2060.71 16.6533 2060.29 17.0879 2059.97 17.6445L2059.9 16.1504Z" fill="black"/>
<circle cx="1620" cy="205" r="10" transform="rotate(-90 1620 205)" fill="#C4C4C4"/>
<circle cx="1580" cy="205" r="10" transform="rotate(-90 1580 205)" fill="#C4C4C4"/>
<circle cx="1540" cy="205" r="10" transform="rotate(-90 1540 205)" fill="#C4C4C4"/>
<rect x="1967" y="1164" width="100" height="100" rx="50" fill="#0A84FF"/>
<rect x="1817" y="1314" width="100" height="100" rx="50" fill="#0A84FF"/>
<rect x="1742" y="1464" width="100" height="100" rx="50" fill="#0A84FF"/>
<rect x="1892" y="1464" width="100" height="100" rx="50" fill="#C4C4C4"/>
<rect x="2117" y="1314" width="100" height="100" rx="50" fill="#C4C4C4"/>
<line x1="2070.52" y1="1277.7" x2="2104.7" y2="1306.48" stroke="#C4C4C4" stroke-width="5" stroke-linecap="round" stroke-linejoin="round"/>
<line x1="2.5" y1="-2.5" x2="47.179" y2="-2.5" transform="matrix(-0.764911 0.644136 0.644136 0.764911 1967 1278)" stroke="#0A84FF" stroke-width="5" stroke-linecap="round" stroke-linejoin="round"/>
<line x1="1817.87" y1="1426.43" x2="1801.43" y2="1454.13" stroke="#0A84FF" stroke-width="5" stroke-linecap="round" stroke-linejoin="round"/>
<line x1="2.5" y1="-2.5" x2="34.7156" y2="-2.5" transform="matrix(0.510539 0.859855 0.859855 -0.510539 1917 1423)" stroke="#C4C4C4" stroke-width="5" stroke-linecap="round" stroke-linejoin="round"/>
<circle cx="1620" cy="733" r="10" transform="rotate(-90 1620 733)" fill="#C4C4C4"/>
<circle cx="1580" cy="733" r="10" transform="rotate(-90 1580 733)" fill="#C4C4C4"/>
<circle cx="1540" cy="733" r="10" transform="rotate(-90 1540 733)" fill="#C4C4C4"/>
<circle cx="1620" cy="1335" r="10" transform="rotate(-90 1620 1335)" fill="#C4C4C4"/>
<circle cx="1580" cy="1335" r="10" transform="rotate(-90 1580 1335)" fill="#C4C4C4"/>
<circle cx="1540" cy="1335" r="10" transform="rotate(-90 1540 1335)" fill="#C4C4C4"/>
<rect x="1167" y="540" width="100" height="100" rx="50" fill="#0A84FF"/>
<rect x="1017" y="690" width="100" height="100" rx="50" fill="#0A84FF"/>
<rect x="942" y="840" width="100" height="100" rx="50" fill="#0A84FF"/>
<rect x="1092" y="840" width="100" height="100" rx="50" fill="#C4C4C4"/>
<rect x="1317" y="690" width="100" height="100" rx="50" fill="#C4C4C4"/>
<line x1="1270.52" y1="653.698" x2="1304.7" y2="682.477" stroke="#C4C4C4" stroke-width="5" stroke-linecap="round" stroke-linejoin="round"/>
<line x1="2.5" y1="-2.5" x2="47.179" y2="-2.5" transform="matrix(-0.764911 0.644136 0.644136 0.764911 1167 654)" stroke="#0A84FF" stroke-width="5" stroke-linecap="round" stroke-linejoin="round"/>
<line x1="1017.87" y1="802.426" x2="1001.43" y2="830.127" stroke="#0A84FF" stroke-width="5" stroke-linecap="round" stroke-linejoin="round"/>
<line x1="2.5" y1="-2.5" x2="34.7156" y2="-2.5" transform="matrix(0.510539 0.859855 0.859855 -0.510539 1117 799)" stroke="#C4C4C4" stroke-width="5" stroke-linecap="round" stroke-linejoin="round"/>
<path d="M9.30176 292.096C8.45215 292.096 7.73926 291.93 7.16309 291.598C6.59668 291.256 6.14258 290.812 5.80078 290.265C5.44922 289.728 5.19531 289.122 5.03906 288.448C4.89258 287.765 4.81934 287.076 4.81934 286.383V285.768C4.81934 285.084 4.89258 284.405 5.03906 283.731C5.19531 283.058 5.44922 282.447 5.80078 281.9C6.15234 281.363 6.61133 280.929 7.17773 280.597C7.75391 280.255 8.46191 280.084 9.30176 280.084C9.84863 280.084 10.3564 280.177 10.8252 280.362C11.3037 280.548 11.7139 280.802 12.0557 281.124C12.3975 281.446 12.666 281.822 12.8613 282.252C13.0664 282.672 13.1738 283.121 13.1836 283.6H15.7471C15.7471 282.799 15.5859 282.047 15.2637 281.344C14.9414 280.641 14.4971 280.03 13.9307 279.513C13.3545 279.005 12.6709 278.604 11.8799 278.312C11.0986 278.009 10.2393 277.857 9.30176 277.857C8.10059 277.857 7.05078 278.072 6.15234 278.502C5.25391 278.932 4.50684 279.508 3.91113 280.23C3.30566 280.963 2.85156 281.808 2.54883 282.765C2.24609 283.722 2.09473 284.723 2.09473 285.768V286.383C2.09473 287.438 2.24609 288.443 2.54883 289.4C2.85156 290.348 3.30566 291.183 3.91113 291.905C4.50684 292.638 5.25391 293.219 6.15234 293.648C7.05078 294.078 8.10059 294.293 9.30176 294.293C10.1416 294.293 10.9473 294.151 11.7188 293.868C12.4902 293.575 13.1738 293.185 13.7695 292.696C14.3652 292.218 14.8389 291.661 15.1904 291.026C15.5518 290.382 15.7373 289.708 15.7471 289.005H13.1836C13.1738 289.444 13.0566 289.854 12.832 290.235C12.6172 290.606 12.3291 290.929 11.9678 291.202C11.6064 291.485 11.1914 291.705 10.7227 291.861C10.2637 292.018 9.79004 292.096 9.30176 292.096ZM20.9912 271.5V273.858H26.3818V291.656H20.9912V294H34.2627V291.656H29.0918V271.5H20.9912ZM48.999 294H51.8262V293.766C51.6504 293.326 51.5137 292.813 51.416 292.228C51.3184 291.632 51.2695 291.07 51.2695 290.543V283.175C51.2695 282.286 51.1084 281.51 50.7861 280.846C50.4639 280.182 50.0244 279.625 49.4678 279.176C48.9014 278.736 48.2324 278.409 47.4609 278.194C46.6895 277.97 45.8545 277.857 44.9561 277.857C43.9697 277.857 43.0859 277.994 42.3047 278.268C41.5332 278.541 40.8789 278.897 40.3418 279.337C39.7949 279.786 39.375 280.289 39.082 280.846C38.7988 281.402 38.6523 281.969 38.6426 282.545H41.3672C41.3672 282.213 41.4453 281.896 41.6016 281.593C41.7676 281.28 41.9971 281.012 42.29 280.787C42.583 280.562 42.9395 280.382 43.3594 280.245C43.7891 280.108 44.2725 280.04 44.8096 280.04C45.3857 280.04 45.9033 280.113 46.3623 280.26C46.8311 280.406 47.2266 280.611 47.5488 280.875C47.8711 281.148 48.1201 281.476 48.2959 281.856C48.4717 282.237 48.5596 282.667 48.5596 283.146V284.391H45.6006C44.4971 284.391 43.4961 284.498 42.5977 284.713C41.709 284.928 40.9473 285.25 40.3125 285.68C39.6777 286.119 39.1846 286.666 38.833 287.32C38.4912 287.975 38.3203 288.736 38.3203 289.605C38.3203 290.27 38.4473 290.89 38.7012 291.466C38.9648 292.032 39.3359 292.521 39.8145 292.931C40.2832 293.351 40.8545 293.683 41.5283 293.927C42.2119 294.171 42.9736 294.293 43.8135 294.293C44.3311 294.293 44.8193 294.239 45.2783 294.132C45.7373 294.024 46.1719 293.878 46.582 293.692C46.9824 293.507 47.3486 293.292 47.6807 293.048C48.0225 292.804 48.3301 292.545 48.6035 292.271C48.6328 292.604 48.6768 292.926 48.7354 293.238C48.8037 293.541 48.8916 293.795 48.999 294ZM44.209 291.935C43.6816 291.935 43.2178 291.866 42.8174 291.729C42.417 291.593 42.085 291.402 41.8213 291.158C41.5576 290.924 41.3574 290.641 41.2207 290.309C41.0938 289.977 41.0303 289.615 41.0303 289.225C41.0303 288.814 41.1035 288.448 41.25 288.126C41.4062 287.804 41.6309 287.525 41.9238 287.291C42.334 286.959 42.8857 286.715 43.5791 286.559C44.2822 286.393 45.1025 286.31 46.04 286.31H48.5596V289.518C48.4033 289.83 48.1885 290.133 47.915 290.426C47.6416 290.709 47.3193 290.963 46.9482 291.188C46.5674 291.412 46.1475 291.593 45.6885 291.729C45.2295 291.866 44.7363 291.935 44.209 291.935ZM67.1338 289.796C67.1338 290.05 67.085 290.289 66.9873 290.514C66.8896 290.738 66.748 290.943 66.5625 291.129C66.2598 291.432 65.8398 291.671 65.3027 291.847C64.7656 292.013 64.1357 292.096 63.4131 292.096C62.9541 292.096 62.4902 292.047 62.0215 291.949C61.5527 291.852 61.1279 291.686 60.7471 291.451C60.3564 291.217 60.0293 290.909 59.7656 290.528C59.5117 290.147 59.3652 289.679 59.3262 289.122H56.6162C56.6162 289.796 56.7676 290.445 57.0703 291.07C57.3828 291.695 57.832 292.242 58.418 292.711C58.9941 293.189 59.7021 293.575 60.542 293.868C61.3818 294.151 62.3389 294.293 63.4131 294.293C64.3506 294.293 65.2148 294.181 66.0059 293.956C66.7969 293.731 67.4756 293.414 68.042 293.004C68.6084 292.594 69.0479 292.101 69.3604 291.524C69.6826 290.948 69.8438 290.309 69.8438 289.605C69.8438 288.951 69.7021 288.375 69.4189 287.877C69.1455 287.379 68.7451 286.939 68.2178 286.559C67.6904 286.188 67.041 285.87 66.2695 285.606C65.498 285.333 64.624 285.094 63.6475 284.889C62.9053 284.742 62.29 284.591 61.8018 284.435C61.3232 284.278 60.9424 284.103 60.6592 283.907C60.3662 283.712 60.1611 283.492 60.0439 283.248C59.9268 283.004 59.8682 282.726 59.8682 282.413C59.8682 282.11 59.9414 281.817 60.0879 281.534C60.2344 281.251 60.4541 281.002 60.7471 280.787C61.0303 280.572 61.3867 280.401 61.8164 280.274C62.2559 280.147 62.7637 280.084 63.3398 280.084C63.8965 280.084 64.3945 280.162 64.834 280.318C65.2832 280.475 65.6641 280.68 65.9766 280.934C66.2891 281.188 66.5332 281.48 66.709 281.812C66.8848 282.135 66.9727 282.467 66.9727 282.809H69.6826C69.6826 282.115 69.5312 281.471 69.2285 280.875C68.9355 280.27 68.5156 279.742 67.9688 279.293C67.4219 278.844 66.7578 278.492 65.9766 278.238C65.1953 277.984 64.3164 277.857 63.3398 277.857C62.4316 277.857 61.5967 277.979 60.835 278.224C60.083 278.468 59.4336 278.8 58.8867 279.22C58.3398 279.64 57.915 280.133 57.6123 280.699C57.3096 281.256 57.1582 281.856 57.1582 282.501C57.1582 283.155 57.3047 283.731 57.5977 284.229C57.8906 284.718 58.3057 285.143 58.8428 285.504C59.3701 285.875 60.0049 286.192 60.7471 286.456C61.499 286.72 62.3291 286.944 63.2373 287.13C63.9795 287.276 64.5996 287.442 65.0977 287.628C65.5957 287.804 65.9961 287.999 66.2988 288.214C66.6016 288.429 66.8164 288.668 66.9434 288.932C67.0703 289.186 67.1338 289.474 67.1338 289.796ZM85.1514 289.796C85.1514 290.05 85.1025 290.289 85.0049 290.514C84.9072 290.738 84.7656 290.943 84.5801 291.129C84.2773 291.432 83.8574 291.671 83.3203 291.847C82.7832 292.013 82.1533 292.096 81.4307 292.096C80.9717 292.096 80.5078 292.047 80.0391 291.949C79.5703 291.852 79.1455 291.686 78.7646 291.451C78.374 291.217 78.0469 290.909 77.7832 290.528C77.5293 290.147 77.3828 289.679 77.3438 289.122H74.6338C74.6338 289.796 74.7852 290.445 75.0879 291.07C75.4004 291.695 75.8496 292.242 76.4355 292.711C77.0117 293.189 77.7197 293.575 78.5596 293.868C79.3994 294.151 80.3564 294.293 81.4307 294.293C82.3682 294.293 83.2324 294.181 84.0234 293.956C84.8145 293.731 85.4932 293.414 86.0596 293.004C86.626 292.594 87.0654 292.101 87.3779 291.524C87.7002 290.948 87.8613 290.309 87.8613 289.605C87.8613 288.951 87.7197 288.375 87.4365 287.877C87.1631 287.379 86.7627 286.939 86.2354 286.559C85.708 286.188 85.0586 285.87 84.2871 285.606C83.5156 285.333 82.6416 285.094 81.665 284.889C80.9229 284.742 80.3076 284.591 79.8193 284.435C79.3408 284.278 78.96 284.103 78.6768 283.907C78.3838 283.712 78.1787 283.492 78.0615 283.248C77.9443 283.004 77.8857 282.726 77.8857 282.413C77.8857 282.11 77.959 281.817 78.1055 281.534C78.252 281.251 78.4717 281.002 78.7646 280.787C79.0479 280.572 79.4043 280.401 79.834 280.274C80.2734 280.147 80.7812 280.084 81.3574 280.084C81.9141 280.084 82.4121 280.162 82.8516 280.318C83.3008 280.475 83.6816 280.68 83.9941 280.934C84.3066 281.188 84.5508 281.48 84.7266 281.812C84.9023 282.135 84.9902 282.467 84.9902 282.809H87.7002C87.7002 282.115 87.5488 281.471 87.2461 280.875C86.9531 280.27 86.5332 279.742 85.9863 279.293C85.4395 278.844 84.7754 278.492 83.9941 278.238C83.2129 277.984 82.334 277.857 81.3574 277.857C80.4492 277.857 79.6143 277.979 78.8525 278.224C78.1006 278.468 77.4512 278.8 76.9043 279.22C76.3574 279.64 75.9326 280.133 75.6299 280.699C75.3271 281.256 75.1758 281.856 75.1758 282.501C75.1758 283.155 75.3223 283.731 75.6152 284.229C75.9082 284.718 76.3232 285.143 76.8604 285.504C77.3877 285.875 78.0225 286.192 78.7646 286.456C79.5166 286.72 80.3467 286.944 81.2549 287.13C81.9971 287.276 82.6172 287.442 83.1152 287.628C83.6133 287.804 84.0137 287.999 84.3164 288.214C84.6191 288.429 84.834 288.668 84.9609 288.932C85.0879 289.186 85.1514 289.474 85.1514 289.796ZM105.791 296.212V294H92.3584V296.212H105.791ZM119.443 294V272.672H119.224L111.152 275.777V278.253L116.733 276.129V294H119.443Z" fill="black"/>
<path d="M9.30176 752.096C8.45215 752.096 7.73926 751.93 7.16309 751.598C6.59668 751.256 6.14258 750.812 5.80078 750.265C5.44922 749.728 5.19531 749.122 5.03906 748.448C4.89258 747.765 4.81934 747.076 4.81934 746.383V745.768C4.81934 745.084 4.89258 744.405 5.03906 743.731C5.19531 743.058 5.44922 742.447 5.80078 741.9C6.15234 741.363 6.61133 740.929 7.17773 740.597C7.75391 740.255 8.46191 740.084 9.30176 740.084C9.84863 740.084 10.3564 740.177 10.8252 740.362C11.3037 740.548 11.7139 740.802 12.0557 741.124C12.3975 741.446 12.666 741.822 12.8613 742.252C13.0664 742.672 13.1738 743.121 13.1836 743.6H15.7471C15.7471 742.799 15.5859 742.047 15.2637 741.344C14.9414 740.641 14.4971 740.03 13.9307 739.513C13.3545 739.005 12.6709 738.604 11.8799 738.312C11.0986 738.009 10.2393 737.857 9.30176 737.857C8.10059 737.857 7.05078 738.072 6.15234 738.502C5.25391 738.932 4.50684 739.508 3.91113 740.23C3.30566 740.963 2.85156 741.808 2.54883 742.765C2.24609 743.722 2.09473 744.723 2.09473 745.768V746.383C2.09473 747.438 2.24609 748.443 2.54883 749.4C2.85156 750.348 3.30566 751.183 3.91113 751.905C4.50684 752.638 5.25391 753.219 6.15234 753.648C7.05078 754.078 8.10059 754.293 9.30176 754.293C10.1416 754.293 10.9473 754.151 11.7188 753.868C12.4902 753.575 13.1738 753.185 13.7695 752.696C14.3652 752.218 14.8389 751.661 15.1904 751.026C15.5518 750.382 15.7373 749.708 15.7471 749.005H13.1836C13.1738 749.444 13.0566 749.854 12.832 750.235C12.6172 750.606 12.3291 750.929 11.9678 751.202C11.6064 751.485 11.1914 751.705 10.7227 751.861C10.2637 752.018 9.79004 752.096 9.30176 752.096ZM20.9912 731.5V733.858H26.3818V751.656H20.9912V754H34.2627V751.656H29.0918V731.5H20.9912ZM48.999 754H51.8262V753.766C51.6504 753.326 51.5137 752.813 51.416 752.228C51.3184 751.632 51.2695 751.07 51.2695 750.543V743.175C51.2695 742.286 51.1084 741.51 50.7861 740.846C50.4639 740.182 50.0244 739.625 49.4678 739.176C48.9014 738.736 48.2324 738.409 47.4609 738.194C46.6895 737.97 45.8545 737.857 44.9561 737.857C43.9697 737.857 43.0859 737.994 42.3047 738.268C41.5332 738.541 40.8789 738.897 40.3418 739.337C39.7949 739.786 39.375 740.289 39.082 740.846C38.7988 741.402 38.6523 741.969 38.6426 742.545H41.3672C41.3672 742.213 41.4453 741.896 41.6016 741.593C41.7676 741.28 41.9971 741.012 42.29 740.787C42.583 740.562 42.9395 740.382 43.3594 740.245C43.7891 740.108 44.2725 740.04 44.8096 740.04C45.3857 740.04 45.9033 740.113 46.3623 740.26C46.8311 740.406 47.2266 740.611 47.5488 740.875C47.8711 741.148 48.1201 741.476 48.2959 741.856C48.4717 742.237 48.5596 742.667 48.5596 743.146V744.391H45.6006C44.4971 744.391 43.4961 744.498 42.5977 744.713C41.709 744.928 40.9473 745.25 40.3125 745.68C39.6777 746.119 39.1846 746.666 38.833 747.32C38.4912 747.975 38.3203 748.736 38.3203 749.605C38.3203 750.27 38.4473 750.89 38.7012 751.466C38.9648 752.032 39.3359 752.521 39.8145 752.931C40.2832 753.351 40.8545 753.683 41.5283 753.927C42.2119 754.171 42.9736 754.293 43.8135 754.293C44.3311 754.293 44.8193 754.239 45.2783 754.132C45.7373 754.024 46.1719 753.878 46.582 753.692C46.9824 753.507 47.3486 753.292 47.6807 753.048C48.0225 752.804 48.3301 752.545 48.6035 752.271C48.6328 752.604 48.6768 752.926 48.7354 753.238C48.8037 753.541 48.8916 753.795 48.999 754ZM44.209 751.935C43.6816 751.935 43.2178 751.866 42.8174 751.729C42.417 751.593 42.085 751.402 41.8213 751.158C41.5576 750.924 41.3574 750.641 41.2207 750.309C41.0938 749.977 41.0303 749.615 41.0303 749.225C41.0303 748.814 41.1035 748.448 41.25 748.126C41.4062 747.804 41.6309 747.525 41.9238 747.291C42.334 746.959 42.8857 746.715 43.5791 746.559C44.2822 746.393 45.1025 746.31 46.04 746.31H48.5596V749.518C48.4033 749.83 48.1885 750.133 47.915 750.426C47.6416 750.709 47.3193 750.963 46.9482 751.188C46.5674 751.412 46.1475 751.593 45.6885 751.729C45.2295 751.866 44.7363 751.935 44.209 751.935ZM67.1338 749.796C67.1338 750.05 67.085 750.289 66.9873 750.514C66.8896 750.738 66.748 750.943 66.5625 751.129C66.2598 751.432 65.8398 751.671 65.3027 751.847C64.7656 752.013 64.1357 752.096 63.4131 752.096C62.9541 752.096 62.4902 752.047 62.0215 751.949C61.5527 751.852 61.1279 751.686 60.7471 751.451C60.3564 751.217 60.0293 750.909 59.7656 750.528C59.5117 750.147 59.3652 749.679 59.3262 749.122H56.6162C56.6162 749.796 56.7676 750.445 57.0703 751.07C57.3828 751.695 57.832 752.242 58.418 752.711C58.9941 753.189 59.7021 753.575 60.542 753.868C61.3818 754.151 62.3389 754.293 63.4131 754.293C64.3506 754.293 65.2148 754.181 66.0059 753.956C66.7969 753.731 67.4756 753.414 68.042 753.004C68.6084 752.594 69.0479 752.101 69.3604 751.524C69.6826 750.948 69.8438 750.309 69.8438 749.605C69.8438 748.951 69.7021 748.375 69.4189 747.877C69.1455 747.379 68.7451 746.939 68.2178 746.559C67.6904 746.188 67.041 745.87 66.2695 745.606C65.498 745.333 64.624 745.094 63.6475 744.889C62.9053 744.742 62.29 744.591 61.8018 744.435C61.3232 744.278 60.9424 744.103 60.6592 743.907C60.3662 743.712 60.1611 743.492 60.0439 743.248C59.9268 743.004 59.8682 742.726 59.8682 742.413C59.8682 742.11 59.9414 741.817 60.0879 741.534C60.2344 741.251 60.4541 741.002 60.7471 740.787C61.0303 740.572 61.3867 740.401 61.8164 740.274C62.2559 740.147 62.7637 740.084 63.3398 740.084C63.8965 740.084 64.3945 740.162 64.834 740.318C65.2832 740.475 65.6641 740.68 65.9766 740.934C66.2891 741.188 66.5332 741.48 66.709 741.812C66.8848 742.135 66.9727 742.467 66.9727 742.809H69.6826C69.6826 742.115 69.5312 741.471 69.2285 740.875C68.9355 740.27 68.5156 739.742 67.9688 739.293C67.4219 738.844 66.7578 738.492 65.9766 738.238C65.1953 737.984 64.3164 737.857 63.3398 737.857C62.4316 737.857 61.5967 737.979 60.835 738.224C60.083 738.468 59.4336 738.8 58.8867 739.22C58.3398 739.64 57.915 740.133 57.6123 740.699C57.3096 741.256 57.1582 741.856 57.1582 742.501C57.1582 743.155 57.3047 743.731 57.5977 744.229C57.8906 744.718 58.3057 745.143 58.8428 745.504C59.3701 745.875 60.0049 746.192 60.7471 746.456C61.499 746.72 62.3291 746.944 63.2373 747.13C63.9795 747.276 64.5996 747.442 65.0977 747.628C65.5957 747.804 65.9961 747.999 66.2988 748.214C66.6016 748.429 66.8164 748.668 66.9434 748.932C67.0703 749.186 67.1338 749.474 67.1338 749.796ZM85.1514 749.796C85.1514 750.05 85.1025 750.289 85.0049 750.514C84.9072 750.738 84.7656 750.943 84.5801 751.129C84.2773 751.432 83.8574 751.671 83.3203 751.847C82.7832 752.013 82.1533 752.096 81.4307 752.096C80.9717 752.096 80.5078 752.047 80.0391 751.949C79.5703 751.852 79.1455 751.686 78.7646 751.451C78.374 751.217 78.0469 750.909 77.7832 750.528C77.5293 750.147 77.3828 749.679 77.3438 749.122H74.6338C74.6338 749.796 74.7852 750.445 75.0879 751.07C75.4004 751.695 75.8496 752.242 76.4355 752.711C77.0117 753.189 77.7197 753.575 78.5596 753.868C79.3994 754.151 80.3564 754.293 81.4307 754.293C82.3682 754.293 83.2324 754.181 84.0234 753.956C84.8145 753.731 85.4932 753.414 86.0596 753.004C86.626 752.594 87.0654 752.101 87.3779 751.524C87.7002 750.948 87.8613 750.309 87.8613 749.605C87.8613 748.951 87.7197 748.375 87.4365 747.877C87.1631 747.379 86.7627 746.939 86.2354 746.559C85.708 746.188 85.0586 745.87 84.2871 745.606C83.5156 745.333 82.6416 745.094 81.665 744.889C80.9229 744.742 80.3076 744.591 79.8193 744.435C79.3408 744.278 78.96 744.103 78.6768 743.907C78.3838 743.712 78.1787 743.492 78.0615 743.248C77.9443 743.004 77.8857 742.726 77.8857 742.413C77.8857 742.11 77.959 741.817 78.1055 741.534C78.252 741.251 78.4717 741.002 78.7646 740.787C79.0479 740.572 79.4043 740.401 79.834 740.274C80.2734 740.147 80.7812 740.084 81.3574 740.084C81.9141 740.084 82.4121 740.162 82.8516 740.318C83.3008 740.475 83.6816 740.68 83.9941 740.934C84.3066 741.188 84.5508 741.48 84.7266 741.812C84.9023 742.135 84.9902 742.467 84.9902 742.809H87.7002C87.7002 742.115 87.5488 741.471 87.2461 740.875C86.9531 740.27 86.5332 739.742 85.9863 739.293C85.4395 738.844 84.7754 738.492 83.9941 738.238C83.2129 737.984 82.334 737.857 81.3574 737.857C80.4492 737.857 79.6143 737.979 78.8525 738.224C78.1006 738.468 77.4512 738.8 76.9043 739.22C76.3574 739.64 75.9326 740.133 75.6299 740.699C75.3271 741.256 75.1758 741.856 75.1758 742.501C75.1758 743.155 75.3223 743.731 75.6152 744.229C75.9082 744.718 76.3232 745.143 76.8604 745.504C77.3877 745.875 78.0225 746.192 78.7646 746.456C79.5166 746.72 80.3467 746.944 81.2549 747.13C81.9971 747.276 82.6172 747.442 83.1152 747.628C83.6133 747.804 84.0137 747.999 84.3164 748.214C84.6191 748.429 84.834 748.668 84.9609 748.932C85.0879 749.186 85.1514 749.474 85.1514 749.796ZM105.791 756.212V754H92.3584V756.212H105.791ZM123.735 754V751.788H113.027L118.755 745.577C119.292 744.991 119.8 744.405 120.278 743.819C120.767 743.224 121.196 742.623 121.567 742.018C121.929 741.412 122.217 740.802 122.432 740.187C122.646 739.562 122.754 738.932 122.754 738.297C122.754 737.447 122.603 736.661 122.3 735.938C122.007 735.216 121.582 734.591 121.025 734.063C120.469 733.536 119.785 733.126 118.975 732.833C118.174 732.53 117.271 732.379 116.265 732.379C115.171 732.379 114.194 732.555 113.335 732.906C112.485 733.258 111.768 733.731 111.182 734.327C110.586 734.923 110.132 735.621 109.819 736.422C109.507 737.213 109.351 738.058 109.351 738.956H112.075C112.075 738.292 112.158 737.691 112.324 737.154C112.5 736.617 112.764 736.158 113.115 735.777C113.457 735.406 113.887 735.118 114.404 734.913C114.932 734.708 115.552 734.605 116.265 734.605C116.851 734.605 117.373 734.708 117.832 734.913C118.301 735.108 118.701 735.377 119.033 735.719C119.355 736.061 119.6 736.466 119.766 736.935C119.941 737.394 120.029 737.887 120.029 738.414C120.029 738.844 119.976 739.264 119.868 739.674C119.761 740.074 119.58 740.499 119.326 740.948C119.072 741.407 118.735 741.905 118.315 742.442C117.896 742.979 117.373 743.595 116.748 744.288L109.761 752.052V754H123.735Z" fill="black"/>
<path d="M9.30176 1390.1C8.45215 1390.1 7.73926 1389.93 7.16309 1389.6C6.59668 1389.26 6.14258 1388.81 5.80078 1388.26C5.44922 1387.73 5.19531 1387.12 5.03906 1386.45C4.89258 1385.76 4.81934 1385.08 4.81934 1384.38V1383.77C4.81934 1383.08 4.89258 1382.41 5.03906 1381.73C5.19531 1381.06 5.44922 1380.45 5.80078 1379.9C6.15234 1379.36 6.61133 1378.93 7.17773 1378.6C7.75391 1378.25 8.46191 1378.08 9.30176 1378.08C9.84863 1378.08 10.3564 1378.18 10.8252 1378.36C11.3037 1378.55 11.7139 1378.8 12.0557 1379.12C12.3975 1379.45 12.666 1379.82 12.8613 1380.25C13.0664 1380.67 13.1738 1381.12 13.1836 1381.6H15.7471C15.7471 1380.8 15.5859 1380.05 15.2637 1379.34C14.9414 1378.64 14.4971 1378.03 13.9307 1377.51C13.3545 1377 12.6709 1376.6 11.8799 1376.31C11.0986 1376.01 10.2393 1375.86 9.30176 1375.86C8.10059 1375.86 7.05078 1376.07 6.15234 1376.5C5.25391 1376.93 4.50684 1377.51 3.91113 1378.23C3.30566 1378.96 2.85156 1379.81 2.54883 1380.76C2.24609 1381.72 2.09473 1382.72 2.09473 1383.77V1384.38C2.09473 1385.44 2.24609 1386.44 2.54883 1387.4C2.85156 1388.35 3.30566 1389.18 3.91113 1389.91C4.50684 1390.64 5.25391 1391.22 6.15234 1391.65C7.05078 1392.08 8.10059 1392.29 9.30176 1392.29C10.1416 1392.29 10.9473 1392.15 11.7188 1391.87C12.4902 1391.58 13.1738 1391.18 13.7695 1390.7C14.3652 1390.22 14.8389 1389.66 15.1904 1389.03C15.5518 1388.38 15.7373 1387.71 15.7471 1387H13.1836C13.1738 1387.44 13.0566 1387.85 12.832 1388.24C12.6172 1388.61 12.3291 1388.93 11.9678 1389.2C11.6064 1389.49 11.1914 1389.71 10.7227 1389.86C10.2637 1390.02 9.79004 1390.1 9.30176 1390.1ZM20.9912 1369.5V1371.86H26.3818V1389.66H20.9912V1392H34.2627V1389.66H29.0918V1369.5H20.9912ZM48.999 1392H51.8262V1391.77C51.6504 1391.33 51.5137 1390.81 51.416 1390.23C51.3184 1389.63 51.2695 1389.07 51.2695 1388.54V1381.17C51.2695 1380.29 51.1084 1379.51 50.7861 1378.85C50.4639 1378.18 50.0244 1377.62 49.4678 1377.18C48.9014 1376.74 48.2324 1376.41 47.4609 1376.19C46.6895 1375.97 45.8545 1375.86 44.9561 1375.86C43.9697 1375.86 43.0859 1375.99 42.3047 1376.27C41.5332 1376.54 40.8789 1376.9 40.3418 1377.34C39.7949 1377.79 39.375 1378.29 39.082 1378.85C38.7988 1379.4 38.6523 1379.97 38.6426 1380.54H41.3672C41.3672 1380.21 41.4453 1379.9 41.6016 1379.59C41.7676 1379.28 41.9971 1379.01 42.29 1378.79C42.583 1378.56 42.9395 1378.38 43.3594 1378.25C43.7891 1378.11 44.2725 1378.04 44.8096 1378.04C45.3857 1378.04 45.9033 1378.11 46.3623 1378.26C46.8311 1378.41 47.2266 1378.61 47.5488 1378.88C47.8711 1379.15 48.1201 1379.48 48.2959 1379.86C48.4717 1380.24 48.5596 1380.67 48.5596 1381.15V1382.39H45.6006C44.4971 1382.39 43.4961 1382.5 42.5977 1382.71C41.709 1382.93 40.9473 1383.25 40.3125 1383.68C39.6777 1384.12 39.1846 1384.67 38.833 1385.32C38.4912 1385.97 38.3203 1386.74 38.3203 1387.61C38.3203 1388.27 38.4473 1388.89 38.7012 1389.47C38.9648 1390.03 39.3359 1390.52 39.8145 1390.93C40.2832 1391.35 40.8545 1391.68 41.5283 1391.93C42.2119 1392.17 42.9736 1392.29 43.8135 1392.29C44.3311 1392.29 44.8193 1392.24 45.2783 1392.13C45.7373 1392.02 46.1719 1391.88 46.582 1391.69C46.9824 1391.51 47.3486 1391.29 47.6807 1391.05C48.0225 1390.8 48.3301 1390.54 48.6035 1390.27C48.6328 1390.6 48.6768 1390.93 48.7354 1391.24C48.8037 1391.54 48.8916 1391.79 48.999 1392ZM44.209 1389.93C43.6816 1389.93 43.2178 1389.87 42.8174 1389.73C42.417 1389.59 42.085 1389.4 41.8213 1389.16C41.5576 1388.92 41.3574 1388.64 41.2207 1388.31C41.0938 1387.98 41.0303 1387.62 41.0303 1387.22C41.0303 1386.81 41.1035 1386.45 41.25 1386.13C41.4062 1385.8 41.6309 1385.53 41.9238 1385.29C42.334 1384.96 42.8857 1384.71 43.5791 1384.56C44.2822 1384.39 45.1025 1384.31 46.04 1384.31H48.5596V1387.52C48.4033 1387.83 48.1885 1388.13 47.915 1388.43C47.6416 1388.71 47.3193 1388.96 46.9482 1389.19C46.5674 1389.41 46.1475 1389.59 45.6885 1389.73C45.2295 1389.87 44.7363 1389.93 44.209 1389.93ZM67.1338 1387.8C67.1338 1388.05 67.085 1388.29 66.9873 1388.51C66.8896 1388.74 66.748 1388.94 66.5625 1389.13C66.2598 1389.43 65.8398 1389.67 65.3027 1389.85C64.7656 1390.01 64.1357 1390.1 63.4131 1390.1C62.9541 1390.1 62.4902 1390.05 62.0215 1389.95C61.5527 1389.85 61.1279 1389.69 60.7471 1389.45C60.3564 1389.22 60.0293 1388.91 59.7656 1388.53C59.5117 1388.15 59.3652 1387.68 59.3262 1387.12H56.6162C56.6162 1387.8 56.7676 1388.45 57.0703 1389.07C57.3828 1389.7 57.832 1390.24 58.418 1390.71C58.9941 1391.19 59.7021 1391.58 60.542 1391.87C61.3818 1392.15 62.3389 1392.29 63.4131 1392.29C64.3506 1392.29 65.2148 1392.18 66.0059 1391.96C66.7969 1391.73 67.4756 1391.41 68.042 1391C68.6084 1390.59 69.0479 1390.1 69.3604 1389.52C69.6826 1388.95 69.8438 1388.31 69.8438 1387.61C69.8438 1386.95 69.7021 1386.38 69.4189 1385.88C69.1455 1385.38 68.7451 1384.94 68.2178 1384.56C67.6904 1384.19 67.041 1383.87 66.2695 1383.61C65.498 1383.33 64.624 1383.09 63.6475 1382.89C62.9053 1382.74 62.29 1382.59 61.8018 1382.43C61.3232 1382.28 60.9424 1382.1 60.6592 1381.91C60.3662 1381.71 60.1611 1381.49 60.0439 1381.25C59.9268 1381 59.8682 1380.73 59.8682 1380.41C59.8682 1380.11 59.9414 1379.82 60.0879 1379.53C60.2344 1379.25 60.4541 1379 60.7471 1378.79C61.0303 1378.57 61.3867 1378.4 61.8164 1378.27C62.2559 1378.15 62.7637 1378.08 63.3398 1378.08C63.8965 1378.08 64.3945 1378.16 64.834 1378.32C65.2832 1378.47 65.6641 1378.68 65.9766 1378.93C66.2891 1379.19 66.5332 1379.48 66.709 1379.81C66.8848 1380.13 66.9727 1380.47 66.9727 1380.81H69.6826C69.6826 1380.12 69.5312 1379.47 69.2285 1378.88C68.9355 1378.27 68.5156 1377.74 67.9688 1377.29C67.4219 1376.84 66.7578 1376.49 65.9766 1376.24C65.1953 1375.98 64.3164 1375.86 63.3398 1375.86C62.4316 1375.86 61.5967 1375.98 60.835 1376.22C60.083 1376.47 59.4336 1376.8 58.8867 1377.22C58.3398 1377.64 57.915 1378.13 57.6123 1378.7C57.3096 1379.26 57.1582 1379.86 57.1582 1380.5C57.1582 1381.16 57.3047 1381.73 57.5977 1382.23C57.8906 1382.72 58.3057 1383.14 58.8428 1383.5C59.3701 1383.88 60.0049 1384.19 60.7471 1384.46C61.499 1384.72 62.3291 1384.94 63.2373 1385.13C63.9795 1385.28 64.5996 1385.44 65.0977 1385.63C65.5957 1385.8 65.9961 1386 66.2988 1386.21C66.6016 1386.43 66.8164 1386.67 66.9434 1386.93C67.0703 1387.19 67.1338 1387.47 67.1338 1387.8ZM85.1514 1387.8C85.1514 1388.05 85.1025 1388.29 85.0049 1388.51C84.9072 1388.74 84.7656 1388.94 84.5801 1389.13C84.2773 1389.43 83.8574 1389.67 83.3203 1389.85C82.7832 1390.01 82.1533 1390.1 81.4307 1390.1C80.9717 1390.1 80.5078 1390.05 80.0391 1389.95C79.5703 1389.85 79.1455 1389.69 78.7646 1389.45C78.374 1389.22 78.0469 1388.91 77.7832 1388.53C77.5293 1388.15 77.3828 1387.68 77.3438 1387.12H74.6338C74.6338 1387.8 74.7852 1388.45 75.0879 1389.07C75.4004 1389.7 75.8496 1390.24 76.4355 1390.71C77.0117 1391.19 77.7197 1391.58 78.5596 1391.87C79.3994 1392.15 80.3564 1392.29 81.4307 1392.29C82.3682 1392.29 83.2324 1392.18 84.0234 1391.96C84.8145 1391.73 85.4932 1391.41 86.0596 1391C86.626 1390.59 87.0654 1390.1 87.3779 1389.52C87.7002 1388.95 87.8613 1388.31 87.8613 1387.61C87.8613 1386.95 87.7197 1386.38 87.4365 1385.88C87.1631 1385.38 86.7627 1384.94 86.2354 1384.56C85.708 1384.19 85.0586 1383.87 84.2871 1383.61C83.5156 1383.33 82.6416 1383.09 81.665 1382.89C80.9229 1382.74 80.3076 1382.59 79.8193 1382.43C79.3408 1382.28 78.96 1382.1 78.6768 1381.91C78.3838 1381.71 78.1787 1381.49 78.0615 1381.25C77.9443 1381 77.8857 1380.73 77.8857 1380.41C77.8857 1380.11 77.959 1379.82 78.1055 1379.53C78.252 1379.25 78.4717 1379 78.7646 1378.79C79.0479 1378.57 79.4043 1378.4 79.834 1378.27C80.2734 1378.15 80.7812 1378.08 81.3574 1378.08C81.9141 1378.08 82.4121 1378.16 82.8516 1378.32C83.3008 1378.47 83.6816 1378.68 83.9941 1378.93C84.3066 1379.19 84.5508 1379.48 84.7266 1379.81C84.9023 1380.13 84.9902 1380.47 84.9902 1380.81H87.7002C87.7002 1380.12 87.5488 1379.47 87.2461 1378.88C86.9531 1378.27 86.5332 1377.74 85.9863 1377.29C85.4395 1376.84 84.7754 1376.49 83.9941 1376.24C83.2129 1375.98 82.334 1375.86 81.3574 1375.86C80.4492 1375.86 79.6143 1375.98 78.8525 1376.22C78.1006 1376.47 77.4512 1376.8 76.9043 1377.22C76.3574 1377.64 75.9326 1378.13 75.6299 1378.7C75.3271 1379.26 75.1758 1379.86 75.1758 1380.5C75.1758 1381.16 75.3223 1381.73 75.6152 1382.23C75.9082 1382.72 76.3232 1383.14 76.8604 1383.5C77.3877 1383.88 78.0225 1384.19 78.7646 1384.46C79.5166 1384.72 80.3467 1384.94 81.2549 1385.13C81.9971 1385.28 82.6172 1385.44 83.1152 1385.63C83.6133 1385.8 84.0137 1386 84.3164 1386.21C84.6191 1386.43 84.834 1386.67 84.9609 1386.93C85.0879 1387.19 85.1514 1387.47 85.1514 1387.8ZM105.791 1394.21V1392H92.3584V1394.21H105.791ZM110.654 1392H113.364V1380.63C113.55 1380.29 113.765 1379.98 114.009 1379.7C114.263 1379.41 114.536 1379.16 114.829 1378.95C115.19 1378.7 115.586 1378.51 116.016 1378.38C116.445 1378.23 116.909 1378.16 117.407 1378.16C117.983 1378.16 118.491 1378.23 118.931 1378.36C119.38 1378.5 119.761 1378.72 120.073 1379.02C120.376 1379.32 120.605 1379.72 120.762 1380.21C120.918 1380.7 120.996 1381.29 120.996 1382V1392H123.706V1381.94C123.706 1380.88 123.574 1379.97 123.311 1379.21C123.057 1378.44 122.69 1377.81 122.212 1377.31C121.733 1376.81 121.152 1376.44 120.469 1376.21C119.795 1375.97 119.043 1375.86 118.213 1375.86C117.598 1375.87 117.012 1375.96 116.455 1376.14C115.908 1376.3 115.4 1376.54 114.932 1376.85C114.619 1377.06 114.321 1377.3 114.038 1377.59C113.765 1377.86 113.511 1378.16 113.276 1378.49L113.086 1376.15H110.654V1392Z" fill="black"/>
<rect x="465" y="1178" width="100" height="100" rx="50" fill="#0A84FF"/>
<rect x="315" y="1328" width="100" height="100" rx="50" fill="#0A84FF"/>
<rect x="240" y="1478" width="100" height="100" rx="50" fill="#C4C4C4"/>
<rect x="390" y="1478" width="100" height="100" rx="50" fill="#0A84FF"/>
<rect x="615" y="1328" width="100" height="100" rx="50" fill="#C4C4C4"/>
<line x1="568.523" y1="1291.7" x2="602.698" y2="1320.48" stroke="#C4C4C4" stroke-width="5" stroke-linecap="round" stroke-linejoin="round"/>
<line x1="2.5" y1="-2.5" x2="47.179" y2="-2.5" transform="matrix(-0.764911 0.644136 0.644136 0.764911 465 1292)" stroke="#0A84FF" stroke-width="5" stroke-linecap="round" stroke-linejoin="round"/>
<line x1="315.873" y1="1440.43" x2="299.426" y2="1468.13" stroke="#C4C4C4" stroke-width="5" stroke-linecap="round" stroke-linejoin="round"/>
<line x1="2.5" y1="-2.5" x2="34.7156" y2="-2.5" transform="matrix(0.510539 0.859855 0.859855 -0.510539 415 1437)" stroke="#0A84FF" stroke-width="5" stroke-linecap="round" stroke-linejoin="round"/>
<rect x="1967" y="81" width="100" height="100" rx="50" fill="#0A84FF"/>
<rect x="1817" y="231" width="100" height="100" rx="50" fill="#0A84FF"/>
<rect x="1742" y="381" width="100" height="100" rx="50" fill="#C4C4C4"/>
<rect x="1892" y="381" width="100" height="100" rx="50" fill="#0A84FF"/>
<rect x="2117" y="231" width="100" height="100" rx="50" fill="#C4C4C4"/>
<line x1="2070.52" y1="194.698" x2="2104.7" y2="223.477" stroke="#C4C4C4" stroke-width="5" stroke-linecap="round" stroke-linejoin="round"/>
<line x1="2.5" y1="-2.5" x2="47.179" y2="-2.5" transform="matrix(-0.764911 0.644136 0.644136 0.764911 1967 195)" stroke="#0A84FF" stroke-width="5" stroke-linecap="round" stroke-linejoin="round"/>
<line x1="1817.87" y1="343.426" x2="1801.43" y2="371.127" stroke="#C4C4C4" stroke-width="5" stroke-linecap="round" stroke-linejoin="round"/>
<line x1="2.5" y1="-2.5" x2="34.7156" y2="-2.5" transform="matrix(0.510539 0.859855 0.859855 -0.510539 1917 340)" stroke="#0A84FF" stroke-width="5" stroke-linecap="round" stroke-linejoin="round"/>
<rect x="465" y="540" width="100" height="100" rx="50" fill="#0A84FF"/>
<rect x="315" y="690" width="100" height="100" rx="50" fill="#C4C4C4"/>
<rect x="540" y="840" width="100" height="100" rx="50" fill="#0A84FF"/>
<rect x="690" y="840" width="100" height="100" rx="50" fill="#C4C4C4"/>
<rect x="240" y="840" width="100" height="100" rx="50" fill="#C4C4C4"/>
<rect x="390" y="840" width="100" height="100" rx="50" fill="#C4C4C4"/>
<rect x="615" y="690" width="100" height="100" rx="50" fill="#0A84FF"/>
<line x1="568.523" y1="652.698" x2="602.698" y2="681.477" stroke="#0A84FF" stroke-width="5" stroke-linecap="round" stroke-linejoin="round"/>
<line x1="2.5" y1="-2.5" x2="47.179" y2="-2.5" transform="matrix(-0.764911 0.644136 0.644136 0.764911 465 653)" stroke="#C4C4C4" stroke-width="5" stroke-linecap="round" stroke-linejoin="round"/>
<line x1="315.873" y1="801.426" x2="299.426" y2="829.127" stroke="#C4C4C4" stroke-width="5" stroke-linecap="round" stroke-linejoin="round"/>
<line x1="2.5" y1="-2.5" x2="34.7156" y2="-2.5" transform="matrix(0.510539 0.859855 0.859855 -0.510539 415 798)" stroke="#C4C4C4" stroke-width="5" stroke-linecap="round" stroke-linejoin="round"/>
<line x1="615.873" y1="801.426" x2="599.426" y2="829.127" stroke="#0A84FF" stroke-width="5" stroke-linecap="round" stroke-linejoin="round"/>
<line x1="2.5" y1="-2.5" x2="34.7156" y2="-2.5" transform="matrix(0.510539 0.859855 0.859855 -0.510539 715 798)" stroke="#C4C4C4" stroke-width="5" stroke-linecap="round" stroke-linejoin="round"/>
<rect x="1167" y="1164" width="100" height="100" rx="50" fill="#0A84FF"/>
<rect x="1017" y="1314" width="100" height="100" rx="50" fill="#C4C4C4"/>
<rect x="1242" y="1464" width="100" height="100" rx="50" fill="#0A84FF"/>
<rect x="1392" y="1464" width="100" height="100" rx="50" fill="#C4C4C4"/>
<rect x="942" y="1464" width="100" height="100" rx="50" fill="#C4C4C4"/>
<rect x="1092" y="1464" width="100" height="100" rx="50" fill="#C4C4C4"/>
<rect x="1317" y="1314" width="100" height="100" rx="50" fill="#0A84FF"/>
<line x1="1270.52" y1="1276.7" x2="1304.7" y2="1305.48" stroke="#0A84FF" stroke-width="5" stroke-linecap="round" stroke-linejoin="round"/>
<line x1="2.5" y1="-2.5" x2="47.179" y2="-2.5" transform="matrix(-0.764911 0.644136 0.644136 0.764911 1167 1277)" stroke="#C4C4C4" stroke-width="5" stroke-linecap="round" stroke-linejoin="round"/>
<line x1="1017.87" y1="1425.43" x2="1001.43" y2="1453.13" stroke="#C4C4C4" stroke-width="5" stroke-linecap="round" stroke-linejoin="round"/>
<line x1="2.5" y1="-2.5" x2="34.7156" y2="-2.5" transform="matrix(0.510539 0.859855 0.859855 -0.510539 1117 1422)" stroke="#C4C4C4" stroke-width="5" stroke-linecap="round" stroke-linejoin="round"/>
<line x1="1317.87" y1="1425.43" x2="1301.43" y2="1453.13" stroke="#0A84FF" stroke-width="5" stroke-linecap="round" stroke-linejoin="round"/>
<line x1="2.5" y1="-2.5" x2="34.7156" y2="-2.5" transform="matrix(0.510539 0.859855 0.859855 -0.510539 1417 1422)" stroke="#C4C4C4" stroke-width="5" stroke-linecap="round" stroke-linejoin="round"/>
<rect x="1967" y="562" width="100" height="100" rx="50" fill="#0A84FF"/>
<rect x="1817" y="712" width="100" height="100" rx="50" fill="#C4C4C4"/>
<rect x="2042" y="862" width="100" height="100" rx="50" fill="#0A84FF"/>
<rect x="2192" y="862" width="100" height="100" rx="50" fill="#C4C4C4"/>
<rect x="1742" y="862" width="100" height="100" rx="50" fill="#C4C4C4"/>
<rect x="1892" y="862" width="100" height="100" rx="50" fill="#C4C4C4"/>
<rect x="2117" y="712" width="100" height="100" rx="50" fill="#0A84FF"/>
<line x1="2070.52" y1="674.698" x2="2104.7" y2="703.477" stroke="#0A84FF" stroke-width="5" stroke-linecap="round" stroke-linejoin="round"/>
<line x1="2.5" y1="-2.5" x2="47.179" y2="-2.5" transform="matrix(-0.764911 0.644136 0.644136 0.764911 1967 675)" stroke="#C4C4C4" stroke-width="5" stroke-linecap="round" stroke-linejoin="round"/>
<line x1="1817.87" y1="823.426" x2="1801.43" y2="851.127" stroke="#C4C4C4" stroke-width="5" stroke-linecap="round" stroke-linejoin="round"/>
<line x1="2.5" y1="-2.5" x2="34.7156" y2="-2.5" transform="matrix(0.510539 0.859855 0.859855 -0.510539 1917 820)" stroke="#C4C4C4" stroke-width="5" stroke-linecap="round" stroke-linejoin="round"/>
<line x1="2117.87" y1="823.426" x2="2101.43" y2="851.127" stroke="#0A84FF" stroke-width="5" stroke-linecap="round" stroke-linejoin="round"/>
<line x1="2.5" y1="-2.5" x2="34.7156" y2="-2.5" transform="matrix(0.510539 0.859855 0.859855 -0.510539 2217 820)" stroke="#C4C4C4" stroke-width="5" stroke-linecap="round" stroke-linejoin="round"/>
<circle cx="516" cy="1092" r="10" fill="#C4C4C4"/>
<circle cx="516" cy="1052" r="10" fill="#C4C4C4"/>
<circle cx="516" cy="1012" r="10" fill="#C4C4C4"/>
<circle cx="1218" cy="1092" r="10" fill="#C4C4C4"/>
<circle cx="1218" cy="1052" r="10" fill="#C4C4C4"/>
<circle cx="1218" cy="1012" r="10" fill="#C4C4C4"/>
<circle cx="2018" cy="1092" r="10" fill="#C4C4C4"/>
<circle cx="2018" cy="1052" r="10" fill="#C4C4C4"/>
<circle cx="2018" cy="1012" r="10" fill="#C4C4C4"/>
</svg>
