<svg width="2227" height="1690" viewBox="0 0 2227 1690" fill="none" xmlns="http://www.w3.org/2000/svg">
<path d="M400.935 15.8574C399.782 15.8574 398.752 16.1113 397.844 16.6191C396.945 17.1172 396.174 17.8008 395.529 18.6699L395.515 18.2744L395.397 16.1504H392.819V32H395.544V21.834C395.72 21.3457 395.939 20.9062 396.203 20.5156C396.477 20.1152 396.794 19.7783 397.155 19.5049C397.556 19.1924 398.024 18.958 398.562 18.8018C399.099 18.6357 399.699 18.5527 400.363 18.5527C400.881 18.5527 401.374 18.582 401.843 18.6406C402.321 18.6895 402.824 18.7725 403.352 18.8896L403.718 16.2383C403.444 16.1211 403.034 16.0283 402.487 15.96C401.95 15.8916 401.433 15.8574 400.935 15.8574ZM407.805 23.9287V24.251C407.805 25.3936 407.971 26.4531 408.303 27.4297C408.635 28.4062 409.113 29.2559 409.738 29.9785C410.354 30.7012 411.105 31.2676 411.994 31.6777C412.893 32.0879 413.903 32.293 415.026 32.293C416.14 32.293 417.141 32.0879 418.029 31.6777C418.918 31.2676 419.675 30.7012 420.3 29.9785C420.915 29.2559 421.389 28.4062 421.721 27.4297C422.053 26.4531 422.219 25.3936 422.219 24.251V23.9287C422.219 22.7861 422.053 21.7266 421.721 20.75C421.389 19.7637 420.915 18.9092 420.3 18.1865C419.675 17.4639 418.913 16.8975 418.015 16.4873C417.126 16.0674 416.12 15.8574 414.997 15.8574C413.884 15.8574 412.883 16.0674 411.994 16.4873C411.105 16.8975 410.354 17.4639 409.738 18.1865C409.113 18.9092 408.635 19.7637 408.303 20.75C407.971 21.7266 407.805 22.7861 407.805 23.9287ZM410.515 24.251V23.9287C410.515 23.1572 410.607 22.4199 410.793 21.7168C410.979 21.0039 411.262 20.3789 411.643 19.8418C412.014 19.3047 412.478 18.8799 413.034 18.5674C413.591 18.2451 414.245 18.084 414.997 18.084C415.749 18.084 416.403 18.2451 416.96 18.5674C417.526 18.8799 418 19.3047 418.381 19.8418C418.752 20.3789 419.03 21.0039 419.216 21.7168C419.411 22.4199 419.509 23.1572 419.509 23.9287V24.251C419.509 25.0322 419.416 25.7793 419.23 26.4922C419.045 27.1953 418.767 27.8154 418.396 28.3525C418.015 28.8896 417.541 29.3145 416.975 29.627C416.418 29.9395 415.769 30.0957 415.026 30.0957C414.274 30.0957 413.615 29.9395 413.049 29.627C412.482 29.3145 412.014 28.8896 411.643 28.3525C411.262 27.8154 410.979 27.1953 410.793 26.4922C410.607 25.7793 410.515 25.0322 410.515 24.251ZM437.028 32H439.489V16.1504H436.765V27.5176C436.618 27.8594 436.433 28.1768 436.208 28.4697C435.993 28.7529 435.739 28.9971 435.446 29.2021C435.095 29.4561 434.68 29.6562 434.201 29.8027C433.723 29.9395 433.181 30.0078 432.575 30.0078C432.058 30.0078 431.599 29.9395 431.198 29.8027C430.808 29.666 430.476 29.4268 430.202 29.085C429.929 28.7529 429.724 28.3037 429.587 27.7373C429.45 27.1709 429.382 26.458 429.382 25.5986V16.1504H426.672V25.5693C426.672 26.751 426.799 27.7666 427.053 28.6162C427.316 29.4561 427.688 30.1494 428.166 30.6963C428.645 31.2432 429.221 31.6484 429.895 31.9121C430.568 32.166 431.32 32.293 432.15 32.293C433.186 32.293 434.099 32.0781 434.89 31.6484C435.681 31.209 436.34 30.5986 436.867 29.8174L437.028 32ZM444.602 32H447.312V20.6328C447.497 20.291 447.712 19.9785 447.956 19.6953C448.21 19.4121 448.483 19.1631 448.776 18.9482C449.138 18.7041 449.533 18.5137 449.963 18.377C450.393 18.2305 450.856 18.1572 451.354 18.1572C451.931 18.1572 452.438 18.2256 452.878 18.3623C453.327 18.499 453.708 18.7188 454.021 19.0215C454.323 19.3242 454.553 19.7197 454.709 20.208C454.865 20.6963 454.943 21.292 454.943 21.9951V32H457.653V21.9365C457.653 20.8818 457.521 19.9736 457.258 19.2119C457.004 18.4404 456.638 17.8057 456.159 17.3076C455.681 16.8096 455.1 16.4434 454.416 16.209C453.742 15.9746 452.99 15.8574 452.16 15.8574C451.545 15.8672 450.959 15.96 450.402 16.1357C449.855 16.3018 449.348 16.541 448.879 16.8535C448.566 17.0586 448.269 17.3027 447.985 17.5859C447.712 17.8594 447.458 18.1621 447.224 18.4941L447.033 16.1504H444.602V32ZM462.106 23.9434V24.251C462.106 25.3838 462.258 26.4434 462.561 27.4297C462.863 28.4062 463.288 29.2559 463.835 29.9785C464.382 30.7012 465.041 31.2676 465.812 31.6777C466.594 32.0879 467.463 32.293 468.42 32.293C469.396 32.293 470.251 32.127 470.983 31.7949C471.716 31.4629 472.346 30.9746 472.873 30.3301L472.99 32H475.48V9.5H472.771V17.7178C472.253 17.1123 471.638 16.6533 470.925 16.3408C470.222 16.0186 469.396 15.8574 468.449 15.8574C467.482 15.8574 466.608 16.0576 465.827 16.458C465.046 16.8584 464.382 17.415 463.835 18.1279C463.278 18.8408 462.849 19.6953 462.546 20.6914C462.253 21.6777 462.106 22.7617 462.106 23.9434ZM464.816 24.251V23.9434C464.816 23.1719 464.899 22.4395 465.065 21.7461C465.231 21.043 465.49 20.4229 465.842 19.8857C466.184 19.3584 466.623 18.9385 467.16 18.626C467.707 18.3135 468.361 18.1572 469.123 18.1572C470.012 18.1572 470.754 18.3672 471.35 18.7871C471.945 19.1973 472.419 19.7246 472.771 20.3691V27.7227C472.419 28.416 471.945 28.9678 471.35 29.3779C470.754 29.7881 470.002 29.9932 469.094 29.9932C468.342 29.9932 467.697 29.8418 467.16 29.5391C466.623 29.2266 466.184 28.8066 465.842 28.2793C465.49 27.752 465.231 27.1416 465.065 26.4482C464.899 25.7549 464.816 25.0225 464.816 24.251ZM493.791 34.2119V32H480.358V34.2119H493.791ZM507.443 32V10.6719H507.224L499.152 13.7773V16.2529L504.733 14.1289V32H507.443Z" fill="black"/>
<path d="M1050.93 15.8574C1049.78 15.8574 1048.75 16.1113 1047.84 16.6191C1046.95 17.1172 1046.17 17.8008 1045.53 18.6699L1045.51 18.2744L1045.4 16.1504H1042.82V32H1045.54V21.834C1045.72 21.3457 1045.94 20.9062 1046.2 20.5156C1046.48 20.1152 1046.79 19.7783 1047.16 19.5049C1047.56 19.1924 1048.02 18.958 1048.56 18.8018C1049.1 18.6357 1049.7 18.5527 1050.36 18.5527C1050.88 18.5527 1051.37 18.582 1051.84 18.6406C1052.32 18.6895 1052.82 18.7725 1053.35 18.8896L1053.72 16.2383C1053.44 16.1211 1053.03 16.0283 1052.49 15.96C1051.95 15.8916 1051.43 15.8574 1050.93 15.8574ZM1057.8 23.9287V24.251C1057.8 25.3936 1057.97 26.4531 1058.3 27.4297C1058.63 28.4062 1059.11 29.2559 1059.74 29.9785C1060.35 30.7012 1061.11 31.2676 1061.99 31.6777C1062.89 32.0879 1063.9 32.293 1065.03 32.293C1066.14 32.293 1067.14 32.0879 1068.03 31.6777C1068.92 31.2676 1069.67 30.7012 1070.3 29.9785C1070.92 29.2559 1071.39 28.4062 1071.72 27.4297C1072.05 26.4531 1072.22 25.3936 1072.22 24.251V23.9287C1072.22 22.7861 1072.05 21.7266 1071.72 20.75C1071.39 19.7637 1070.92 18.9092 1070.3 18.1865C1069.67 17.4639 1068.91 16.8975 1068.01 16.4873C1067.13 16.0674 1066.12 15.8574 1065 15.8574C1063.88 15.8574 1062.88 16.0674 1061.99 16.4873C1061.11 16.8975 1060.35 17.4639 1059.74 18.1865C1059.11 18.9092 1058.63 19.7637 1058.3 20.75C1057.97 21.7266 1057.8 22.7861 1057.8 23.9287ZM1060.51 24.251V23.9287C1060.51 23.1572 1060.61 22.4199 1060.79 21.7168C1060.98 21.0039 1061.26 20.3789 1061.64 19.8418C1062.01 19.3047 1062.48 18.8799 1063.03 18.5674C1063.59 18.2451 1064.25 18.084 1065 18.084C1065.75 18.084 1066.4 18.2451 1066.96 18.5674C1067.53 18.8799 1068 19.3047 1068.38 19.8418C1068.75 20.3789 1069.03 21.0039 1069.22 21.7168C1069.41 22.4199 1069.51 23.1572 1069.51 23.9287V24.251C1069.51 25.0322 1069.42 25.7793 1069.23 26.4922C1069.04 27.1953 1068.77 27.8154 1068.4 28.3525C1068.01 28.8896 1067.54 29.3145 1066.97 29.627C1066.42 29.9395 1065.77 30.0957 1065.03 30.0957C1064.27 30.0957 1063.62 29.9395 1063.05 29.627C1062.48 29.3145 1062.01 28.8896 1061.64 28.3525C1061.26 27.8154 1060.98 27.1953 1060.79 26.4922C1060.61 25.7793 1060.51 25.0322 1060.51 24.251ZM1087.03 32H1089.49V16.1504H1086.76V27.5176C1086.62 27.8594 1086.43 28.1768 1086.21 28.4697C1085.99 28.7529 1085.74 28.9971 1085.45 29.2021C1085.09 29.4561 1084.68 29.6562 1084.2 29.8027C1083.72 29.9395 1083.18 30.0078 1082.58 30.0078C1082.06 30.0078 1081.6 29.9395 1081.2 29.8027C1080.81 29.666 1080.48 29.4268 1080.2 29.085C1079.93 28.7529 1079.72 28.3037 1079.59 27.7373C1079.45 27.1709 1079.38 26.458 1079.38 25.5986V16.1504H1076.67V25.5693C1076.67 26.751 1076.8 27.7666 1077.05 28.6162C1077.32 29.4561 1077.69 30.1494 1078.17 30.6963C1078.64 31.2432 1079.22 31.6484 1079.89 31.9121C1080.57 32.166 1081.32 32.293 1082.15 32.293C1083.19 32.293 1084.1 32.0781 1084.89 31.6484C1085.68 31.209 1086.34 30.5986 1086.87 29.8174L1087.03 32ZM1094.6 32H1097.31V20.6328C1097.5 20.291 1097.71 19.9785 1097.96 19.6953C1098.21 19.4121 1098.48 19.1631 1098.78 18.9482C1099.14 18.7041 1099.53 18.5137 1099.96 18.377C1100.39 18.2305 1100.86 18.1572 1101.35 18.1572C1101.93 18.1572 1102.44 18.2256 1102.88 18.3623C1103.33 18.499 1103.71 18.7188 1104.02 19.0215C1104.32 19.3242 1104.55 19.7197 1104.71 20.208C1104.87 20.6963 1104.94 21.292 1104.94 21.9951V32H1107.65V21.9365C1107.65 20.8818 1107.52 19.9736 1107.26 19.2119C1107 18.4404 1106.64 17.8057 1106.16 17.3076C1105.68 16.8096 1105.1 16.4434 1104.42 16.209C1103.74 15.9746 1102.99 15.8574 1102.16 15.8574C1101.54 15.8672 1100.96 15.96 1100.4 16.1357C1099.86 16.3018 1099.35 16.541 1098.88 16.8535C1098.57 17.0586 1098.27 17.3027 1097.99 17.5859C1097.71 17.8594 1097.46 18.1621 1097.22 18.4941L1097.03 16.1504H1094.6V32ZM1112.11 23.9434V24.251C1112.11 25.3838 1112.26 26.4434 1112.56 27.4297C1112.86 28.4062 1113.29 29.2559 1113.83 29.9785C1114.38 30.7012 1115.04 31.2676 1115.81 31.6777C1116.59 32.0879 1117.46 32.293 1118.42 32.293C1119.4 32.293 1120.25 32.127 1120.98 31.7949C1121.72 31.4629 1122.35 30.9746 1122.87 30.3301L1122.99 32H1125.48V9.5H1122.77V17.7178C1122.25 17.1123 1121.64 16.6533 1120.92 16.3408C1120.22 16.0186 1119.4 15.8574 1118.45 15.8574C1117.48 15.8574 1116.61 16.0576 1115.83 16.458C1115.05 16.8584 1114.38 17.415 1113.83 18.1279C1113.28 18.8408 1112.85 19.6953 1112.55 20.6914C1112.25 21.6777 1112.11 22.7617 1112.11 23.9434ZM1114.82 24.251V23.9434C1114.82 23.1719 1114.9 22.4395 1115.07 21.7461C1115.23 21.043 1115.49 20.4229 1115.84 19.8857C1116.18 19.3584 1116.62 18.9385 1117.16 18.626C1117.71 18.3135 1118.36 18.1572 1119.12 18.1572C1120.01 18.1572 1120.75 18.3672 1121.35 18.7871C1121.95 19.1973 1122.42 19.7246 1122.77 20.3691V27.7227C1122.42 28.416 1121.95 28.9678 1121.35 29.3779C1120.75 29.7881 1120 29.9932 1119.09 29.9932C1118.34 29.9932 1117.7 29.8418 1117.16 29.5391C1116.62 29.2266 1116.18 28.8066 1115.84 28.2793C1115.49 27.752 1115.23 27.1416 1115.07 26.4482C1114.9 25.7549 1114.82 25.0225 1114.82 24.251ZM1143.79 34.2119V32H1130.36V34.2119H1143.79ZM1161.74 32V29.7881H1151.03L1156.75 23.5771C1157.29 22.9912 1157.8 22.4053 1158.28 21.8193C1158.77 21.2236 1159.2 20.623 1159.57 20.0176C1159.93 19.4121 1160.22 18.8018 1160.43 18.1865C1160.65 17.5615 1160.75 16.9316 1160.75 16.2969C1160.75 15.4473 1160.6 14.6611 1160.3 13.9385C1160.01 13.2158 1159.58 12.5908 1159.03 12.0635C1158.47 11.5361 1157.79 11.126 1156.97 10.833C1156.17 10.5303 1155.27 10.3789 1154.26 10.3789C1153.17 10.3789 1152.19 10.5547 1151.33 10.9062C1150.49 11.2578 1149.77 11.7314 1149.18 12.3271C1148.59 12.9229 1148.13 13.6211 1147.82 14.4219C1147.51 15.2129 1147.35 16.0576 1147.35 16.9561H1150.08C1150.08 16.292 1150.16 15.6914 1150.32 15.1543C1150.5 14.6172 1150.76 14.1582 1151.12 13.7773C1151.46 13.4063 1151.89 13.1182 1152.4 12.9131C1152.93 12.708 1153.55 12.6055 1154.26 12.6055C1154.85 12.6055 1155.37 12.708 1155.83 12.9131C1156.3 13.1084 1156.7 13.377 1157.03 13.7188C1157.36 14.0605 1157.6 14.4658 1157.77 14.9346C1157.94 15.3936 1158.03 15.8867 1158.03 16.4141C1158.03 16.8438 1157.98 17.2637 1157.87 17.6738C1157.76 18.0742 1157.58 18.499 1157.33 18.9482C1157.07 19.4072 1156.74 19.9053 1156.32 20.4424C1155.9 20.9795 1155.37 21.5947 1154.75 22.2881L1147.76 30.0518V32H1161.74Z" fill="black"/>
<path d="M1900.93 15.8574C1899.78 15.8574 1898.75 16.1113 1897.84 16.6191C1896.95 17.1172 1896.17 17.8008 1895.53 18.6699L1895.51 18.2744L1895.4 16.1504H1892.82V32H1895.54V21.834C1895.72 21.3457 1895.94 20.9062 1896.2 20.5156C1896.48 20.1152 1896.79 19.7783 1897.16 19.5049C1897.56 19.1924 1898.02 18.958 1898.56 18.8018C1899.1 18.6357 1899.7 18.5527 1900.36 18.5527C1900.88 18.5527 1901.37 18.582 1901.84 18.6406C1902.32 18.6895 1902.82 18.7725 1903.35 18.8896L1903.72 16.2383C1903.44 16.1211 1903.03 16.0283 1902.49 15.96C1901.95 15.8916 1901.43 15.8574 1900.93 15.8574ZM1907.8 23.9287V24.251C1907.8 25.3936 1907.97 26.4531 1908.3 27.4297C1908.63 28.4062 1909.11 29.2559 1909.74 29.9785C1910.35 30.7012 1911.11 31.2676 1911.99 31.6777C1912.89 32.0879 1913.9 32.293 1915.03 32.293C1916.14 32.293 1917.14 32.0879 1918.03 31.6777C1918.92 31.2676 1919.67 30.7012 1920.3 29.9785C1920.92 29.2559 1921.39 28.4062 1921.72 27.4297C1922.05 26.4531 1922.22 25.3936 1922.22 24.251V23.9287C1922.22 22.7861 1922.05 21.7266 1921.72 20.75C1921.39 19.7637 1920.92 18.9092 1920.3 18.1865C1919.67 17.4639 1918.91 16.8975 1918.01 16.4873C1917.13 16.0674 1916.12 15.8574 1915 15.8574C1913.88 15.8574 1912.88 16.0674 1911.99 16.4873C1911.11 16.8975 1910.35 17.4639 1909.74 18.1865C1909.11 18.9092 1908.63 19.7637 1908.3 20.75C1907.97 21.7266 1907.8 22.7861 1907.8 23.9287ZM1910.51 24.251V23.9287C1910.51 23.1572 1910.61 22.4199 1910.79 21.7168C1910.98 21.0039 1911.26 20.3789 1911.64 19.8418C1912.01 19.3047 1912.48 18.8799 1913.03 18.5674C1913.59 18.2451 1914.25 18.084 1915 18.084C1915.75 18.084 1916.4 18.2451 1916.96 18.5674C1917.53 18.8799 1918 19.3047 1918.38 19.8418C1918.75 20.3789 1919.03 21.0039 1919.22 21.7168C1919.41 22.4199 1919.51 23.1572 1919.51 23.9287V24.251C1919.51 25.0322 1919.42 25.7793 1919.23 26.4922C1919.04 27.1953 1918.77 27.8154 1918.4 28.3525C1918.01 28.8896 1917.54 29.3145 1916.97 29.627C1916.42 29.9395 1915.77 30.0957 1915.03 30.0957C1914.27 30.0957 1913.62 29.9395 1913.05 29.627C1912.48 29.3145 1912.01 28.8896 1911.64 28.3525C1911.26 27.8154 1910.98 27.1953 1910.79 26.4922C1910.61 25.7793 1910.51 25.0322 1910.51 24.251ZM1937.03 32H1939.49V16.1504H1936.76V27.5176C1936.62 27.8594 1936.43 28.1768 1936.21 28.4697C1935.99 28.7529 1935.74 28.9971 1935.45 29.2021C1935.09 29.4561 1934.68 29.6562 1934.2 29.8027C1933.72 29.9395 1933.18 30.0078 1932.58 30.0078C1932.06 30.0078 1931.6 29.9395 1931.2 29.8027C1930.81 29.666 1930.48 29.4268 1930.2 29.085C1929.93 28.7529 1929.72 28.3037 1929.59 27.7373C1929.45 27.1709 1929.38 26.458 1929.38 25.5986V16.1504H1926.67V25.5693C1926.67 26.751 1926.8 27.7666 1927.05 28.6162C1927.32 29.4561 1927.69 30.1494 1928.17 30.6963C1928.64 31.2432 1929.22 31.6484 1929.89 31.9121C1930.57 32.166 1931.32 32.293 1932.15 32.293C1933.19 32.293 1934.1 32.0781 1934.89 31.6484C1935.68 31.209 1936.34 30.5986 1936.87 29.8174L1937.03 32ZM1944.6 32H1947.31V20.6328C1947.5 20.291 1947.71 19.9785 1947.96 19.6953C1948.21 19.4121 1948.48 19.1631 1948.78 18.9482C1949.14 18.7041 1949.53 18.5137 1949.96 18.377C1950.39 18.2305 1950.86 18.1572 1951.35 18.1572C1951.93 18.1572 1952.44 18.2256 1952.88 18.3623C1953.33 18.499 1953.71 18.7188 1954.02 19.0215C1954.32 19.3242 1954.55 19.7197 1954.71 20.208C1954.87 20.6963 1954.94 21.292 1954.94 21.9951V32H1957.65V21.9365C1957.65 20.8818 1957.52 19.9736 1957.26 19.2119C1957 18.4404 1956.64 17.8057 1956.16 17.3076C1955.68 16.8096 1955.1 16.4434 1954.42 16.209C1953.74 15.9746 1952.99 15.8574 1952.16 15.8574C1951.54 15.8672 1950.96 15.96 1950.4 16.1357C1949.86 16.3018 1949.35 16.541 1948.88 16.8535C1948.57 17.0586 1948.27 17.3027 1947.99 17.5859C1947.71 17.8594 1947.46 18.1621 1947.22 18.4941L1947.03 16.1504H1944.6V32ZM1962.11 23.9434V24.251C1962.11 25.3838 1962.26 26.4434 1962.56 27.4297C1962.86 28.4062 1963.29 29.2559 1963.83 29.9785C1964.38 30.7012 1965.04 31.2676 1965.81 31.6777C1966.59 32.0879 1967.46 32.293 1968.42 32.293C1969.4 32.293 1970.25 32.127 1970.98 31.7949C1971.72 31.4629 1972.35 30.9746 1972.87 30.3301L1972.99 32H1975.48V9.5H1972.77V17.7178C1972.25 17.1123 1971.64 16.6533 1970.92 16.3408C1970.22 16.0186 1969.4 15.8574 1968.45 15.8574C1967.48 15.8574 1966.61 16.0576 1965.83 16.458C1965.05 16.8584 1964.38 17.415 1963.83 18.1279C1963.28 18.8408 1962.85 19.6953 1962.55 20.6914C1962.25 21.6777 1962.11 22.7617 1962.11 23.9434ZM1964.82 24.251V23.9434C1964.82 23.1719 1964.9 22.4395 1965.07 21.7461C1965.23 21.043 1965.49 20.4229 1965.84 19.8857C1966.18 19.3584 1966.62 18.9385 1967.16 18.626C1967.71 18.3135 1968.36 18.1572 1969.12 18.1572C1970.01 18.1572 1970.75 18.3672 1971.35 18.7871C1971.95 19.1973 1972.42 19.7246 1972.77 20.3691V27.7227C1972.42 28.416 1971.95 28.9678 1971.35 29.3779C1970.75 29.7881 1970 29.9932 1969.09 29.9932C1968.34 29.9932 1967.7 29.8418 1967.16 29.5391C1966.62 29.2266 1966.18 28.8066 1965.84 28.2793C1965.49 27.752 1965.23 27.1416 1965.07 26.4482C1964.9 25.7549 1964.82 25.0225 1964.82 24.251ZM1993.79 34.2119V32H1980.36V34.2119H1993.79ZM1999.9 16.1504H1997.47V32H2000.05V19.3877C2000.1 19.2314 2000.18 19.085 2000.27 18.9482C2000.36 18.8115 2000.48 18.6895 2000.6 18.582C2000.77 18.4453 2000.97 18.3428 2001.2 18.2744C2001.45 18.1963 2001.73 18.1572 2002.05 18.1572C2002.35 18.1572 2002.6 18.1963 2002.81 18.2744C2003.04 18.3428 2003.22 18.4551 2003.37 18.6113C2003.53 18.7773 2003.64 18.9873 2003.71 19.2412C2003.79 19.4951 2003.83 19.7881 2003.83 20.1201V32H2006.4V20.1348C2006.4 20.0762 2006.4 20.0273 2006.4 19.9883C2006.4 19.9395 2006.4 19.8906 2006.4 19.8418C2006.43 19.5977 2006.49 19.3779 2006.58 19.1826C2006.67 18.9775 2006.79 18.7969 2006.95 18.6406C2007.1 18.4941 2007.3 18.377 2007.53 18.2891C2007.77 18.2012 2008.04 18.1572 2008.37 18.1572C2008.67 18.1572 2008.93 18.1963 2009.16 18.2744C2009.39 18.3525 2009.59 18.4697 2009.74 18.626C2009.89 18.792 2010 19.002 2010.08 19.2559C2010.16 19.5098 2010.2 19.8027 2010.2 20.1348V32H2012.78V20.1641C2012.78 19.4023 2012.69 18.7432 2012.51 18.1865C2012.34 17.6201 2012.08 17.1611 2011.75 16.8096C2011.45 16.4971 2011.08 16.2627 2010.64 16.1064C2010.2 15.9404 2009.7 15.8574 2009.16 15.8574C2008.76 15.8672 2008.39 15.9209 2008.04 16.0186C2007.71 16.1162 2007.41 16.248 2007.14 16.4141C2006.92 16.5605 2006.72 16.7314 2006.54 16.9268C2006.35 17.1221 2006.19 17.332 2006.05 17.5566C2005.94 17.3125 2005.81 17.0928 2005.66 16.8975C2005.51 16.7021 2005.34 16.5361 2005.16 16.3994C2004.9 16.2236 2004.61 16.0918 2004.26 16.0039C2003.93 15.9062 2003.56 15.8574 2003.14 15.8574C2002.39 15.8672 2001.76 16.0283 2001.23 16.3408C2000.71 16.6533 2000.29 17.0879 1999.97 17.6445L1999.9 16.1504Z" fill="black"/>
<path d="M9.30176 300.096C8.45215 300.096 7.73926 299.93 7.16309 299.598C6.59668 299.256 6.14258 298.812 5.80078 298.265C5.44922 297.728 5.19531 297.122 5.03906 296.448C4.89258 295.765 4.81934 295.076 4.81934 294.383V293.768C4.81934 293.084 4.89258 292.405 5.03906 291.731C5.19531 291.058 5.44922 290.447 5.80078 289.9C6.15234 289.363 6.61133 288.929 7.17773 288.597C7.75391 288.255 8.46191 288.084 9.30176 288.084C9.84863 288.084 10.3564 288.177 10.8252 288.362C11.3037 288.548 11.7139 288.802 12.0557 289.124C12.3975 289.446 12.666 289.822 12.8613 290.252C13.0664 290.672 13.1738 291.121 13.1836 291.6H15.7471C15.7471 290.799 15.5859 290.047 15.2637 289.344C14.9414 288.641 14.4971 288.03 13.9307 287.513C13.3545 287.005 12.6709 286.604 11.8799 286.312C11.0986 286.009 10.2393 285.857 9.30176 285.857C8.10059 285.857 7.05078 286.072 6.15234 286.502C5.25391 286.932 4.50684 287.508 3.91113 288.23C3.30566 288.963 2.85156 289.808 2.54883 290.765C2.24609 291.722 2.09473 292.723 2.09473 293.768V294.383C2.09473 295.438 2.24609 296.443 2.54883 297.4C2.85156 298.348 3.30566 299.183 3.91113 299.905C4.50684 300.638 5.25391 301.219 6.15234 301.648C7.05078 302.078 8.10059 302.293 9.30176 302.293C10.1416 302.293 10.9473 302.151 11.7188 301.868C12.4902 301.575 13.1738 301.185 13.7695 300.696C14.3652 300.218 14.8389 299.661 15.1904 299.026C15.5518 298.382 15.7373 297.708 15.7471 297.005H13.1836C13.1738 297.444 13.0566 297.854 12.832 298.235C12.6172 298.606 12.3291 298.929 11.9678 299.202C11.6064 299.485 11.1914 299.705 10.7227 299.861C10.2637 300.018 9.79004 300.096 9.30176 300.096ZM20.9912 279.5V281.858H26.3818V299.656H20.9912V302H34.2627V299.656H29.0918V279.5H20.9912ZM48.999 302H51.8262V301.766C51.6504 301.326 51.5137 300.813 51.416 300.228C51.3184 299.632 51.2695 299.07 51.2695 298.543V291.175C51.2695 290.286 51.1084 289.51 50.7861 288.846C50.4639 288.182 50.0244 287.625 49.4678 287.176C48.9014 286.736 48.2324 286.409 47.4609 286.194C46.6895 285.97 45.8545 285.857 44.9561 285.857C43.9697 285.857 43.0859 285.994 42.3047 286.268C41.5332 286.541 40.8789 286.897 40.3418 287.337C39.7949 287.786 39.375 288.289 39.082 288.846C38.7988 289.402 38.6523 289.969 38.6426 290.545H41.3672C41.3672 290.213 41.4453 289.896 41.6016 289.593C41.7676 289.28 41.9971 289.012 42.29 288.787C42.583 288.562 42.9395 288.382 43.3594 288.245C43.7891 288.108 44.2725 288.04 44.8096 288.04C45.3857 288.04 45.9033 288.113 46.3623 288.26C46.8311 288.406 47.2266 288.611 47.5488 288.875C47.8711 289.148 48.1201 289.476 48.2959 289.856C48.4717 290.237 48.5596 290.667 48.5596 291.146V292.391H45.6006C44.4971 292.391 43.4961 292.498 42.5977 292.713C41.709 292.928 40.9473 293.25 40.3125 293.68C39.6777 294.119 39.1846 294.666 38.833 295.32C38.4912 295.975 38.3203 296.736 38.3203 297.605C38.3203 298.27 38.4473 298.89 38.7012 299.466C38.9648 300.032 39.3359 300.521 39.8145 300.931C40.2832 301.351 40.8545 301.683 41.5283 301.927C42.2119 302.171 42.9736 302.293 43.8135 302.293C44.3311 302.293 44.8193 302.239 45.2783 302.132C45.7373 302.024 46.1719 301.878 46.582 301.692C46.9824 301.507 47.3486 301.292 47.6807 301.048C48.0225 300.804 48.3301 300.545 48.6035 300.271C48.6328 300.604 48.6768 300.926 48.7354 301.238C48.8037 301.541 48.8916 301.795 48.999 302ZM44.209 299.935C43.6816 299.935 43.2178 299.866 42.8174 299.729C42.417 299.593 42.085 299.402 41.8213 299.158C41.5576 298.924 41.3574 298.641 41.2207 298.309C41.0938 297.977 41.0303 297.615 41.0303 297.225C41.0303 296.814 41.1035 296.448 41.25 296.126C41.4062 295.804 41.6309 295.525 41.9238 295.291C42.334 294.959 42.8857 294.715 43.5791 294.559C44.2822 294.393 45.1025 294.31 46.04 294.31H48.5596V297.518C48.4033 297.83 48.1885 298.133 47.915 298.426C47.6416 298.709 47.3193 298.963 46.9482 299.188C46.5674 299.412 46.1475 299.593 45.6885 299.729C45.2295 299.866 44.7363 299.935 44.209 299.935ZM67.1338 297.796C67.1338 298.05 67.085 298.289 66.9873 298.514C66.8896 298.738 66.748 298.943 66.5625 299.129C66.2598 299.432 65.8398 299.671 65.3027 299.847C64.7656 300.013 64.1357 300.096 63.4131 300.096C62.9541 300.096 62.4902 300.047 62.0215 299.949C61.5527 299.852 61.1279 299.686 60.7471 299.451C60.3564 299.217 60.0293 298.909 59.7656 298.528C59.5117 298.147 59.3652 297.679 59.3262 297.122H56.6162C56.6162 297.796 56.7676 298.445 57.0703 299.07C57.3828 299.695 57.832 300.242 58.418 300.711C58.9941 301.189 59.7021 301.575 60.542 301.868C61.3818 302.151 62.3389 302.293 63.4131 302.293C64.3506 302.293 65.2148 302.181 66.0059 301.956C66.7969 301.731 67.4756 301.414 68.042 301.004C68.6084 300.594 69.0479 300.101 69.3604 299.524C69.6826 298.948 69.8438 298.309 69.8438 297.605C69.8438 296.951 69.7021 296.375 69.4189 295.877C69.1455 295.379 68.7451 294.939 68.2178 294.559C67.6904 294.188 67.041 293.87 66.2695 293.606C65.498 293.333 64.624 293.094 63.6475 292.889C62.9053 292.742 62.29 292.591 61.8018 292.435C61.3232 292.278 60.9424 292.103 60.6592 291.907C60.3662 291.712 60.1611 291.492 60.0439 291.248C59.9268 291.004 59.8682 290.726 59.8682 290.413C59.8682 290.11 59.9414 289.817 60.0879 289.534C60.2344 289.251 60.4541 289.002 60.7471 288.787C61.0303 288.572 61.3867 288.401 61.8164 288.274C62.2559 288.147 62.7637 288.084 63.3398 288.084C63.8965 288.084 64.3945 288.162 64.834 288.318C65.2832 288.475 65.6641 288.68 65.9766 288.934C66.2891 289.188 66.5332 289.48 66.709 289.812C66.8848 290.135 66.9727 290.467 66.9727 290.809H69.6826C69.6826 290.115 69.5312 289.471 69.2285 288.875C68.9355 288.27 68.5156 287.742 67.9688 287.293C67.4219 286.844 66.7578 286.492 65.9766 286.238C65.1953 285.984 64.3164 285.857 63.3398 285.857C62.4316 285.857 61.5967 285.979 60.835 286.224C60.083 286.468 59.4336 286.8 58.8867 287.22C58.3398 287.64 57.915 288.133 57.6123 288.699C57.3096 289.256 57.1582 289.856 57.1582 290.501C57.1582 291.155 57.3047 291.731 57.5977 292.229C57.8906 292.718 58.3057 293.143 58.8428 293.504C59.3701 293.875 60.0049 294.192 60.7471 294.456C61.499 294.72 62.3291 294.944 63.2373 295.13C63.9795 295.276 64.5996 295.442 65.0977 295.628C65.5957 295.804 65.9961 295.999 66.2988 296.214C66.6016 296.429 66.8164 296.668 66.9434 296.932C67.0703 297.186 67.1338 297.474 67.1338 297.796ZM85.1514 297.796C85.1514 298.05 85.1025 298.289 85.0049 298.514C84.9072 298.738 84.7656 298.943 84.5801 299.129C84.2773 299.432 83.8574 299.671 83.3203 299.847C82.7832 300.013 82.1533 300.096 81.4307 300.096C80.9717 300.096 80.5078 300.047 80.0391 299.949C79.5703 299.852 79.1455 299.686 78.7646 299.451C78.374 299.217 78.0469 298.909 77.7832 298.528C77.5293 298.147 77.3828 297.679 77.3438 297.122H74.6338C74.6338 297.796 74.7852 298.445 75.0879 299.07C75.4004 299.695 75.8496 300.242 76.4355 300.711C77.0117 301.189 77.7197 301.575 78.5596 301.868C79.3994 302.151 80.3564 302.293 81.4307 302.293C82.3682 302.293 83.2324 302.181 84.0234 301.956C84.8145 301.731 85.4932 301.414 86.0596 301.004C86.626 300.594 87.0654 300.101 87.3779 299.524C87.7002 298.948 87.8613 298.309 87.8613 297.605C87.8613 296.951 87.7197 296.375 87.4365 295.877C87.1631 295.379 86.7627 294.939 86.2354 294.559C85.708 294.188 85.0586 293.87 84.2871 293.606C83.5156 293.333 82.6416 293.094 81.665 292.889C80.9229 292.742 80.3076 292.591 79.8193 292.435C79.3408 292.278 78.96 292.103 78.6768 291.907C78.3838 291.712 78.1787 291.492 78.0615 291.248C77.9443 291.004 77.8857 290.726 77.8857 290.413C77.8857 290.11 77.959 289.817 78.1055 289.534C78.252 289.251 78.4717 289.002 78.7646 288.787C79.0479 288.572 79.4043 288.401 79.834 288.274C80.2734 288.147 80.7812 288.084 81.3574 288.084C81.9141 288.084 82.4121 288.162 82.8516 288.318C83.3008 288.475 83.6816 288.68 83.9941 288.934C84.3066 289.188 84.5508 289.48 84.7266 289.812C84.9023 290.135 84.9902 290.467 84.9902 290.809H87.7002C87.7002 290.115 87.5488 289.471 87.2461 288.875C86.9531 288.27 86.5332 287.742 85.9863 287.293C85.4395 286.844 84.7754 286.492 83.9941 286.238C83.2129 285.984 82.334 285.857 81.3574 285.857C80.4492 285.857 79.6143 285.979 78.8525 286.224C78.1006 286.468 77.4512 286.8 76.9043 287.22C76.3574 287.64 75.9326 288.133 75.6299 288.699C75.3271 289.256 75.1758 289.856 75.1758 290.501C75.1758 291.155 75.3223 291.731 75.6152 292.229C75.9082 292.718 76.3232 293.143 76.8604 293.504C77.3877 293.875 78.0225 294.192 78.7646 294.456C79.5166 294.72 80.3467 294.944 81.2549 295.13C81.9971 295.276 82.6172 295.442 83.1152 295.628C83.6133 295.804 84.0137 295.999 84.3164 296.214C84.6191 296.429 84.834 296.668 84.9609 296.932C85.0879 297.186 85.1514 297.474 85.1514 297.796ZM105.791 304.212V302H92.3584V304.212H105.791ZM119.443 302V280.672H119.224L111.152 283.777V286.253L116.733 284.129V302H119.443Z" fill="black"/>
<path d="M9.30176 800.096C8.45215 800.096 7.73926 799.93 7.16309 799.598C6.59668 799.256 6.14258 798.812 5.80078 798.265C5.44922 797.728 5.19531 797.122 5.03906 796.448C4.89258 795.765 4.81934 795.076 4.81934 794.383V793.768C4.81934 793.084 4.89258 792.405 5.03906 791.731C5.19531 791.058 5.44922 790.447 5.80078 789.9C6.15234 789.363 6.61133 788.929 7.17773 788.597C7.75391 788.255 8.46191 788.084 9.30176 788.084C9.84863 788.084 10.3564 788.177 10.8252 788.362C11.3037 788.548 11.7139 788.802 12.0557 789.124C12.3975 789.446 12.666 789.822 12.8613 790.252C13.0664 790.672 13.1738 791.121 13.1836 791.6H15.7471C15.7471 790.799 15.5859 790.047 15.2637 789.344C14.9414 788.641 14.4971 788.03 13.9307 787.513C13.3545 787.005 12.6709 786.604 11.8799 786.312C11.0986 786.009 10.2393 785.857 9.30176 785.857C8.10059 785.857 7.05078 786.072 6.15234 786.502C5.25391 786.932 4.50684 787.508 3.91113 788.23C3.30566 788.963 2.85156 789.808 2.54883 790.765C2.24609 791.722 2.09473 792.723 2.09473 793.768V794.383C2.09473 795.438 2.24609 796.443 2.54883 797.4C2.85156 798.348 3.30566 799.183 3.91113 799.905C4.50684 800.638 5.25391 801.219 6.15234 801.648C7.05078 802.078 8.10059 802.293 9.30176 802.293C10.1416 802.293 10.9473 802.151 11.7188 801.868C12.4902 801.575 13.1738 801.185 13.7695 800.696C14.3652 800.218 14.8389 799.661 15.1904 799.026C15.5518 798.382 15.7373 797.708 15.7471 797.005H13.1836C13.1738 797.444 13.0566 797.854 12.832 798.235C12.6172 798.606 12.3291 798.929 11.9678 799.202C11.6064 799.485 11.1914 799.705 10.7227 799.861C10.2637 800.018 9.79004 800.096 9.30176 800.096ZM20.9912 779.5V781.858H26.3818V799.656H20.9912V802H34.2627V799.656H29.0918V779.5H20.9912ZM48.999 802H51.8262V801.766C51.6504 801.326 51.5137 800.813 51.416 800.228C51.3184 799.632 51.2695 799.07 51.2695 798.543V791.175C51.2695 790.286 51.1084 789.51 50.7861 788.846C50.4639 788.182 50.0244 787.625 49.4678 787.176C48.9014 786.736 48.2324 786.409 47.4609 786.194C46.6895 785.97 45.8545 785.857 44.9561 785.857C43.9697 785.857 43.0859 785.994 42.3047 786.268C41.5332 786.541 40.8789 786.897 40.3418 787.337C39.7949 787.786 39.375 788.289 39.082 788.846C38.7988 789.402 38.6523 789.969 38.6426 790.545H41.3672C41.3672 790.213 41.4453 789.896 41.6016 789.593C41.7676 789.28 41.9971 789.012 42.29 788.787C42.583 788.562 42.9395 788.382 43.3594 788.245C43.7891 788.108 44.2725 788.04 44.8096 788.04C45.3857 788.04 45.9033 788.113 46.3623 788.26C46.8311 788.406 47.2266 788.611 47.5488 788.875C47.8711 789.148 48.1201 789.476 48.2959 789.856C48.4717 790.237 48.5596 790.667 48.5596 791.146V792.391H45.6006C44.4971 792.391 43.4961 792.498 42.5977 792.713C41.709 792.928 40.9473 793.25 40.3125 793.68C39.6777 794.119 39.1846 794.666 38.833 795.32C38.4912 795.975 38.3203 796.736 38.3203 797.605C38.3203 798.27 38.4473 798.89 38.7012 799.466C38.9648 800.032 39.3359 800.521 39.8145 800.931C40.2832 801.351 40.8545 801.683 41.5283 801.927C42.2119 802.171 42.9736 802.293 43.8135 802.293C44.3311 802.293 44.8193 802.239 45.2783 802.132C45.7373 802.024 46.1719 801.878 46.582 801.692C46.9824 801.507 47.3486 801.292 47.6807 801.048C48.0225 800.804 48.3301 800.545 48.6035 800.271C48.6328 800.604 48.6768 800.926 48.7354 801.238C48.8037 801.541 48.8916 801.795 48.999 802ZM44.209 799.935C43.6816 799.935 43.2178 799.866 42.8174 799.729C42.417 799.593 42.085 799.402 41.8213 799.158C41.5576 798.924 41.3574 798.641 41.2207 798.309C41.0938 797.977 41.0303 797.615 41.0303 797.225C41.0303 796.814 41.1035 796.448 41.25 796.126C41.4062 795.804 41.6309 795.525 41.9238 795.291C42.334 794.959 42.8857 794.715 43.5791 794.559C44.2822 794.393 45.1025 794.31 46.04 794.31H48.5596V797.518C48.4033 797.83 48.1885 798.133 47.915 798.426C47.6416 798.709 47.3193 798.963 46.9482 799.188C46.5674 799.412 46.1475 799.593 45.6885 799.729C45.2295 799.866 44.7363 799.935 44.209 799.935ZM67.1338 797.796C67.1338 798.05 67.085 798.289 66.9873 798.514C66.8896 798.738 66.748 798.943 66.5625 799.129C66.2598 799.432 65.8398 799.671 65.3027 799.847C64.7656 800.013 64.1357 800.096 63.4131 800.096C62.9541 800.096 62.4902 800.047 62.0215 799.949C61.5527 799.852 61.1279 799.686 60.7471 799.451C60.3564 799.217 60.0293 798.909 59.7656 798.528C59.5117 798.147 59.3652 797.679 59.3262 797.122H56.6162C56.6162 797.796 56.7676 798.445 57.0703 799.07C57.3828 799.695 57.832 800.242 58.418 800.711C58.9941 801.189 59.7021 801.575 60.542 801.868C61.3818 802.151 62.3389 802.293 63.4131 802.293C64.3506 802.293 65.2148 802.181 66.0059 801.956C66.7969 801.731 67.4756 801.414 68.042 801.004C68.6084 800.594 69.0479 800.101 69.3604 799.524C69.6826 798.948 69.8438 798.309 69.8438 797.605C69.8438 796.951 69.7021 796.375 69.4189 795.877C69.1455 795.379 68.7451 794.939 68.2178 794.559C67.6904 794.188 67.041 793.87 66.2695 793.606C65.498 793.333 64.624 793.094 63.6475 792.889C62.9053 792.742 62.29 792.591 61.8018 792.435C61.3232 792.278 60.9424 792.103 60.6592 791.907C60.3662 791.712 60.1611 791.492 60.0439 791.248C59.9268 791.004 59.8682 790.726 59.8682 790.413C59.8682 790.11 59.9414 789.817 60.0879 789.534C60.2344 789.251 60.4541 789.002 60.7471 788.787C61.0303 788.572 61.3867 788.401 61.8164 788.274C62.2559 788.147 62.7637 788.084 63.3398 788.084C63.8965 788.084 64.3945 788.162 64.834 788.318C65.2832 788.475 65.6641 788.68 65.9766 788.934C66.2891 789.188 66.5332 789.48 66.709 789.812C66.8848 790.135 66.9727 790.467 66.9727 790.809H69.6826C69.6826 790.115 69.5312 789.471 69.2285 788.875C68.9355 788.27 68.5156 787.742 67.9688 787.293C67.4219 786.844 66.7578 786.492 65.9766 786.238C65.1953 785.984 64.3164 785.857 63.3398 785.857C62.4316 785.857 61.5967 785.979 60.835 786.224C60.083 786.468 59.4336 786.8 58.8867 787.22C58.3398 787.64 57.915 788.133 57.6123 788.699C57.3096 789.256 57.1582 789.856 57.1582 790.501C57.1582 791.155 57.3047 791.731 57.5977 792.229C57.8906 792.718 58.3057 793.143 58.8428 793.504C59.3701 793.875 60.0049 794.192 60.7471 794.456C61.499 794.72 62.3291 794.944 63.2373 795.13C63.9795 795.276 64.5996 795.442 65.0977 795.628C65.5957 795.804 65.9961 795.999 66.2988 796.214C66.6016 796.429 66.8164 796.668 66.9434 796.932C67.0703 797.186 67.1338 797.474 67.1338 797.796ZM85.1514 797.796C85.1514 798.05 85.1025 798.289 85.0049 798.514C84.9072 798.738 84.7656 798.943 84.5801 799.129C84.2773 799.432 83.8574 799.671 83.3203 799.847C82.7832 800.013 82.1533 800.096 81.4307 800.096C80.9717 800.096 80.5078 800.047 80.0391 799.949C79.5703 799.852 79.1455 799.686 78.7646 799.451C78.374 799.217 78.0469 798.909 77.7832 798.528C77.5293 798.147 77.3828 797.679 77.3438 797.122H74.6338C74.6338 797.796 74.7852 798.445 75.0879 799.07C75.4004 799.695 75.8496 800.242 76.4355 800.711C77.0117 801.189 77.7197 801.575 78.5596 801.868C79.3994 802.151 80.3564 802.293 81.4307 802.293C82.3682 802.293 83.2324 802.181 84.0234 801.956C84.8145 801.731 85.4932 801.414 86.0596 801.004C86.626 800.594 87.0654 800.101 87.3779 799.524C87.7002 798.948 87.8613 798.309 87.8613 797.605C87.8613 796.951 87.7197 796.375 87.4365 795.877C87.1631 795.379 86.7627 794.939 86.2354 794.559C85.708 794.188 85.0586 793.87 84.2871 793.606C83.5156 793.333 82.6416 793.094 81.665 792.889C80.9229 792.742 80.3076 792.591 79.8193 792.435C79.3408 792.278 78.96 792.103 78.6768 791.907C78.3838 791.712 78.1787 791.492 78.0615 791.248C77.9443 791.004 77.8857 790.726 77.8857 790.413C77.8857 790.11 77.959 789.817 78.1055 789.534C78.252 789.251 78.4717 789.002 78.7646 788.787C79.0479 788.572 79.4043 788.401 79.834 788.274C80.2734 788.147 80.7812 788.084 81.3574 788.084C81.9141 788.084 82.4121 788.162 82.8516 788.318C83.3008 788.475 83.6816 788.68 83.9941 788.934C84.3066 789.188 84.5508 789.48 84.7266 789.812C84.9023 790.135 84.9902 790.467 84.9902 790.809H87.7002C87.7002 790.115 87.5488 789.471 87.2461 788.875C86.9531 788.27 86.5332 787.742 85.9863 787.293C85.4395 786.844 84.7754 786.492 83.9941 786.238C83.2129 785.984 82.334 785.857 81.3574 785.857C80.4492 785.857 79.6143 785.979 78.8525 786.224C78.1006 786.468 77.4512 786.8 76.9043 787.22C76.3574 787.64 75.9326 788.133 75.6299 788.699C75.3271 789.256 75.1758 789.856 75.1758 790.501C75.1758 791.155 75.3223 791.731 75.6152 792.229C75.9082 792.718 76.3232 793.143 76.8604 793.504C77.3877 793.875 78.0225 794.192 78.7646 794.456C79.5166 794.72 80.3467 794.944 81.2549 795.13C81.9971 795.276 82.6172 795.442 83.1152 795.628C83.6133 795.804 84.0137 795.999 84.3164 796.214C84.6191 796.429 84.834 796.668 84.9609 796.932C85.0879 797.186 85.1514 797.474 85.1514 797.796ZM105.791 804.212V802H92.3584V804.212H105.791ZM123.735 802V799.788H113.027L118.755 793.577C119.292 792.991 119.8 792.405 120.278 791.819C120.767 791.224 121.196 790.623 121.567 790.018C121.929 789.412 122.217 788.802 122.432 788.187C122.646 787.562 122.754 786.932 122.754 786.297C122.754 785.447 122.603 784.661 122.3 783.938C122.007 783.216 121.582 782.591 121.025 782.063C120.469 781.536 119.785 781.126 118.975 780.833C118.174 780.53 117.271 780.379 116.265 780.379C115.171 780.379 114.194 780.555 113.335 780.906C112.485 781.258 111.768 781.731 111.182 782.327C110.586 782.923 110.132 783.621 109.819 784.422C109.507 785.213 109.351 786.058 109.351 786.956H112.075C112.075 786.292 112.158 785.691 112.324 785.154C112.5 784.617 112.764 784.158 113.115 783.777C113.457 783.406 113.887 783.118 114.404 782.913C114.932 782.708 115.552 782.605 116.265 782.605C116.851 782.605 117.373 782.708 117.832 782.913C118.301 783.108 118.701 783.377 119.033 783.719C119.355 784.061 119.6 784.466 119.766 784.935C119.941 785.394 120.029 785.887 120.029 786.414C120.029 786.844 119.976 787.264 119.868 787.674C119.761 788.074 119.58 788.499 119.326 788.948C119.072 789.407 118.735 789.905 118.315 790.442C117.896 790.979 117.373 791.595 116.748 792.288L109.761 800.052V802H123.735Z" fill="black"/>
<path d="M9.30176 1500.1C8.45215 1500.1 7.73926 1499.93 7.16309 1499.6C6.59668 1499.26 6.14258 1498.81 5.80078 1498.26C5.44922 1497.73 5.19531 1497.12 5.03906 1496.45C4.89258 1495.76 4.81934 1495.08 4.81934 1494.38V1493.77C4.81934 1493.08 4.89258 1492.41 5.03906 1491.73C5.19531 1491.06 5.44922 1490.45 5.80078 1489.9C6.15234 1489.36 6.61133 1488.93 7.17773 1488.6C7.75391 1488.25 8.46191 1488.08 9.30176 1488.08C9.84863 1488.08 10.3564 1488.18 10.8252 1488.36C11.3037 1488.55 11.7139 1488.8 12.0557 1489.12C12.3975 1489.45 12.666 1489.82 12.8613 1490.25C13.0664 1490.67 13.1738 1491.12 13.1836 1491.6H15.7471C15.7471 1490.8 15.5859 1490.05 15.2637 1489.34C14.9414 1488.64 14.4971 1488.03 13.9307 1487.51C13.3545 1487 12.6709 1486.6 11.8799 1486.31C11.0986 1486.01 10.2393 1485.86 9.30176 1485.86C8.10059 1485.86 7.05078 1486.07 6.15234 1486.5C5.25391 1486.93 4.50684 1487.51 3.91113 1488.23C3.30566 1488.96 2.85156 1489.81 2.54883 1490.76C2.24609 1491.72 2.09473 1492.72 2.09473 1493.77V1494.38C2.09473 1495.44 2.24609 1496.44 2.54883 1497.4C2.85156 1498.35 3.30566 1499.18 3.91113 1499.91C4.50684 1500.64 5.25391 1501.22 6.15234 1501.65C7.05078 1502.08 8.10059 1502.29 9.30176 1502.29C10.1416 1502.29 10.9473 1502.15 11.7188 1501.87C12.4902 1501.58 13.1738 1501.18 13.7695 1500.7C14.3652 1500.22 14.8389 1499.66 15.1904 1499.03C15.5518 1498.38 15.7373 1497.71 15.7471 1497H13.1836C13.1738 1497.44 13.0566 1497.85 12.832 1498.24C12.6172 1498.61 12.3291 1498.93 11.9678 1499.2C11.6064 1499.49 11.1914 1499.71 10.7227 1499.86C10.2637 1500.02 9.79004 1500.1 9.30176 1500.1ZM20.9912 1479.5V1481.86H26.3818V1499.66H20.9912V1502H34.2627V1499.66H29.0918V1479.5H20.9912ZM48.999 1502H51.8262V1501.77C51.6504 1501.33 51.5137 1500.81 51.416 1500.23C51.3184 1499.63 51.2695 1499.07 51.2695 1498.54V1491.17C51.2695 1490.29 51.1084 1489.51 50.7861 1488.85C50.4639 1488.18 50.0244 1487.62 49.4678 1487.18C48.9014 1486.74 48.2324 1486.41 47.4609 1486.19C46.6895 1485.97 45.8545 1485.86 44.9561 1485.86C43.9697 1485.86 43.0859 1485.99 42.3047 1486.27C41.5332 1486.54 40.8789 1486.9 40.3418 1487.34C39.7949 1487.79 39.375 1488.29 39.082 1488.85C38.7988 1489.4 38.6523 1489.97 38.6426 1490.54H41.3672C41.3672 1490.21 41.4453 1489.9 41.6016 1489.59C41.7676 1489.28 41.9971 1489.01 42.29 1488.79C42.583 1488.56 42.9395 1488.38 43.3594 1488.25C43.7891 1488.11 44.2725 1488.04 44.8096 1488.04C45.3857 1488.04 45.9033 1488.11 46.3623 1488.26C46.8311 1488.41 47.2266 1488.61 47.5488 1488.88C47.8711 1489.15 48.1201 1489.48 48.2959 1489.86C48.4717 1490.24 48.5596 1490.67 48.5596 1491.15V1492.39H45.6006C44.4971 1492.39 43.4961 1492.5 42.5977 1492.71C41.709 1492.93 40.9473 1493.25 40.3125 1493.68C39.6777 1494.12 39.1846 1494.67 38.833 1495.32C38.4912 1495.97 38.3203 1496.74 38.3203 1497.61C38.3203 1498.27 38.4473 1498.89 38.7012 1499.47C38.9648 1500.03 39.3359 1500.52 39.8145 1500.93C40.2832 1501.35 40.8545 1501.68 41.5283 1501.93C42.2119 1502.17 42.9736 1502.29 43.8135 1502.29C44.3311 1502.29 44.8193 1502.24 45.2783 1502.13C45.7373 1502.02 46.1719 1501.88 46.582 1501.69C46.9824 1501.51 47.3486 1501.29 47.6807 1501.05C48.0225 1500.8 48.3301 1500.54 48.6035 1500.27C48.6328 1500.6 48.6768 1500.93 48.7354 1501.24C48.8037 1501.54 48.8916 1501.79 48.999 1502ZM44.209 1499.93C43.6816 1499.93 43.2178 1499.87 42.8174 1499.73C42.417 1499.59 42.085 1499.4 41.8213 1499.16C41.5576 1498.92 41.3574 1498.64 41.2207 1498.31C41.0938 1497.98 41.0303 1497.62 41.0303 1497.22C41.0303 1496.81 41.1035 1496.45 41.25 1496.13C41.4062 1495.8 41.6309 1495.53 41.9238 1495.29C42.334 1494.96 42.8857 1494.71 43.5791 1494.56C44.2822 1494.39 45.1025 1494.31 46.04 1494.31H48.5596V1497.52C48.4033 1497.83 48.1885 1498.13 47.915 1498.43C47.6416 1498.71 47.3193 1498.96 46.9482 1499.19C46.5674 1499.41 46.1475 1499.59 45.6885 1499.73C45.2295 1499.87 44.7363 1499.93 44.209 1499.93ZM67.1338 1497.8C67.1338 1498.05 67.085 1498.29 66.9873 1498.51C66.8896 1498.74 66.748 1498.94 66.5625 1499.13C66.2598 1499.43 65.8398 1499.67 65.3027 1499.85C64.7656 1500.01 64.1357 1500.1 63.4131 1500.1C62.9541 1500.1 62.4902 1500.05 62.0215 1499.95C61.5527 1499.85 61.1279 1499.69 60.7471 1499.45C60.3564 1499.22 60.0293 1498.91 59.7656 1498.53C59.5117 1498.15 59.3652 1497.68 59.3262 1497.12H56.6162C56.6162 1497.8 56.7676 1498.45 57.0703 1499.07C57.3828 1499.7 57.832 1500.24 58.418 1500.71C58.9941 1501.19 59.7021 1501.58 60.542 1501.87C61.3818 1502.15 62.3389 1502.29 63.4131 1502.29C64.3506 1502.29 65.2148 1502.18 66.0059 1501.96C66.7969 1501.73 67.4756 1501.41 68.042 1501C68.6084 1500.59 69.0479 1500.1 69.3604 1499.52C69.6826 1498.95 69.8438 1498.31 69.8438 1497.61C69.8438 1496.95 69.7021 1496.38 69.4189 1495.88C69.1455 1495.38 68.7451 1494.94 68.2178 1494.56C67.6904 1494.19 67.041 1493.87 66.2695 1493.61C65.498 1493.33 64.624 1493.09 63.6475 1492.89C62.9053 1492.74 62.29 1492.59 61.8018 1492.43C61.3232 1492.28 60.9424 1492.1 60.6592 1491.91C60.3662 1491.71 60.1611 1491.49 60.0439 1491.25C59.9268 1491 59.8682 1490.73 59.8682 1490.41C59.8682 1490.11 59.9414 1489.82 60.0879 1489.53C60.2344 1489.25 60.4541 1489 60.7471 1488.79C61.0303 1488.57 61.3867 1488.4 61.8164 1488.27C62.2559 1488.15 62.7637 1488.08 63.3398 1488.08C63.8965 1488.08 64.3945 1488.16 64.834 1488.32C65.2832 1488.47 65.6641 1488.68 65.9766 1488.93C66.2891 1489.19 66.5332 1489.48 66.709 1489.81C66.8848 1490.13 66.9727 1490.47 66.9727 1490.81H69.6826C69.6826 1490.12 69.5312 1489.47 69.2285 1488.88C68.9355 1488.27 68.5156 1487.74 67.9688 1487.29C67.4219 1486.84 66.7578 1486.49 65.9766 1486.24C65.1953 1485.98 64.3164 1485.86 63.3398 1485.86C62.4316 1485.86 61.5967 1485.98 60.835 1486.22C60.083 1486.47 59.4336 1486.8 58.8867 1487.22C58.3398 1487.64 57.915 1488.13 57.6123 1488.7C57.3096 1489.26 57.1582 1489.86 57.1582 1490.5C57.1582 1491.16 57.3047 1491.73 57.5977 1492.23C57.8906 1492.72 58.3057 1493.14 58.8428 1493.5C59.3701 1493.88 60.0049 1494.19 60.7471 1494.46C61.499 1494.72 62.3291 1494.94 63.2373 1495.13C63.9795 1495.28 64.5996 1495.44 65.0977 1495.63C65.5957 1495.8 65.9961 1496 66.2988 1496.21C66.6016 1496.43 66.8164 1496.67 66.9434 1496.93C67.0703 1497.19 67.1338 1497.47 67.1338 1497.8ZM85.1514 1497.8C85.1514 1498.05 85.1025 1498.29 85.0049 1498.51C84.9072 1498.74 84.7656 1498.94 84.5801 1499.13C84.2773 1499.43 83.8574 1499.67 83.3203 1499.85C82.7832 1500.01 82.1533 1500.1 81.4307 1500.1C80.9717 1500.1 80.5078 1500.05 80.0391 1499.95C79.5703 1499.85 79.1455 1499.69 78.7646 1499.45C78.374 1499.22 78.0469 1498.91 77.7832 1498.53C77.5293 1498.15 77.3828 1497.68 77.3438 1497.12H74.6338C74.6338 1497.8 74.7852 1498.45 75.0879 1499.07C75.4004 1499.7 75.8496 1500.24 76.4355 1500.71C77.0117 1501.19 77.7197 1501.58 78.5596 1501.87C79.3994 1502.15 80.3564 1502.29 81.4307 1502.29C82.3682 1502.29 83.2324 1502.18 84.0234 1501.96C84.8145 1501.73 85.4932 1501.41 86.0596 1501C86.626 1500.59 87.0654 1500.1 87.3779 1499.52C87.7002 1498.95 87.8613 1498.31 87.8613 1497.61C87.8613 1496.95 87.7197 1496.38 87.4365 1495.88C87.1631 1495.38 86.7627 1494.94 86.2354 1494.56C85.708 1494.19 85.0586 1493.87 84.2871 1493.61C83.5156 1493.33 82.6416 1493.09 81.665 1492.89C80.9229 1492.74 80.3076 1492.59 79.8193 1492.43C79.3408 1492.28 78.96 1492.1 78.6768 1491.91C78.3838 1491.71 78.1787 1491.49 78.0615 1491.25C77.9443 1491 77.8857 1490.73 77.8857 1490.41C77.8857 1490.11 77.959 1489.82 78.1055 1489.53C78.252 1489.25 78.4717 1489 78.7646 1488.79C79.0479 1488.57 79.4043 1488.4 79.834 1488.27C80.2734 1488.15 80.7812 1488.08 81.3574 1488.08C81.9141 1488.08 82.4121 1488.16 82.8516 1488.32C83.3008 1488.47 83.6816 1488.68 83.9941 1488.93C84.3066 1489.19 84.5508 1489.48 84.7266 1489.81C84.9023 1490.13 84.9902 1490.47 84.9902 1490.81H87.7002C87.7002 1490.12 87.5488 1489.47 87.2461 1488.88C86.9531 1488.27 86.5332 1487.74 85.9863 1487.29C85.4395 1486.84 84.7754 1486.49 83.9941 1486.24C83.2129 1485.98 82.334 1485.86 81.3574 1485.86C80.4492 1485.86 79.6143 1485.98 78.8525 1486.22C78.1006 1486.47 77.4512 1486.8 76.9043 1487.22C76.3574 1487.64 75.9326 1488.13 75.6299 1488.7C75.3271 1489.26 75.1758 1489.86 75.1758 1490.5C75.1758 1491.16 75.3223 1491.73 75.6152 1492.23C75.9082 1492.72 76.3232 1493.14 76.8604 1493.5C77.3877 1493.88 78.0225 1494.19 78.7646 1494.46C79.5166 1494.72 80.3467 1494.94 81.2549 1495.13C81.9971 1495.28 82.6172 1495.44 83.1152 1495.63C83.6133 1495.8 84.0137 1496 84.3164 1496.21C84.6191 1496.43 84.834 1496.67 84.9609 1496.93C85.0879 1497.19 85.1514 1497.47 85.1514 1497.8ZM105.791 1504.21V1502H92.3584V1504.21H105.791ZM110.654 1502H113.364V1490.63C113.55 1490.29 113.765 1489.98 114.009 1489.7C114.263 1489.41 114.536 1489.16 114.829 1488.95C115.19 1488.7 115.586 1488.51 116.016 1488.38C116.445 1488.23 116.909 1488.16 117.407 1488.16C117.983 1488.16 118.491 1488.23 118.931 1488.36C119.38 1488.5 119.761 1488.72 120.073 1489.02C120.376 1489.32 120.605 1489.72 120.762 1490.21C120.918 1490.7 120.996 1491.29 120.996 1492V1502H123.706V1491.94C123.706 1490.88 123.574 1489.97 123.311 1489.21C123.057 1488.44 122.69 1487.81 122.212 1487.31C121.733 1486.81 121.152 1486.44 120.469 1486.21C119.795 1485.97 119.043 1485.86 118.213 1485.86C117.598 1485.87 117.012 1485.96 116.455 1486.14C115.908 1486.3 115.4 1486.54 114.932 1486.85C114.619 1487.06 114.321 1487.3 114.038 1487.59C113.765 1487.86 113.511 1488.16 113.276 1488.49L113.086 1486.15H110.654V1502Z" fill="black"/>
<line x1="1955.54" y1="140" x2="2102" y2="286.464" stroke="#0A84FF" stroke-width="5" stroke-linecap="round" stroke-linejoin="round"/>
<line x1="1952" y1="143.536" x2="1805.54" y2="290" stroke="#C4C4C4" stroke-width="5" stroke-linecap="round" stroke-linejoin="round"/>
<line x1="1803.12" y1="293.354" x2="1730.35" y2="438.882" stroke="#C4C4C4" stroke-width="5" stroke-linecap="round" stroke-linejoin="round"/>
<line x1="1805.35" y1="291.118" x2="1878.12" y2="436.646" stroke="#C4C4C4" stroke-width="5" stroke-linecap="round" stroke-linejoin="round"/>
<line x1="2103.12" y1="293.354" x2="2030.35" y2="438.882" stroke="#0A84FF" stroke-width="5" stroke-linecap="round" stroke-linejoin="round"/>
<line x1="2105.35" y1="291.118" x2="2178.12" y2="436.646" stroke="#C4C4C4" stroke-width="5" stroke-linecap="round" stroke-linejoin="round"/>
<rect x="1902" y="90" width="100" height="100" rx="50" fill="#0A84FF"/>
<rect x="1752" y="240" width="100" height="100" rx="50" fill="#C4C4C4"/>
<rect x="1977" y="390" width="100" height="100" rx="50" fill="#0A84FF"/>
<rect x="2127" y="390" width="100" height="100" rx="50" fill="#C4C4C4"/>
<rect x="1677" y="390" width="100" height="100" rx="50" fill="#C4C4C4"/>
<rect x="1827" y="390" width="100" height="100" rx="50" fill="#C4C4C4"/>
<rect x="2052" y="240" width="100" height="100" rx="50" fill="#0A84FF"/>
<line x1="1955.54" y1="640" x2="2102" y2="786.464" stroke="#C4C4C4" stroke-width="5" stroke-linecap="round" stroke-linejoin="round"/>
<line x1="1952" y1="643.536" x2="1805.54" y2="790" stroke="#0A84FF" stroke-width="5" stroke-linecap="round" stroke-linejoin="round"/>
<line x1="1803.12" y1="793.354" x2="1730.35" y2="938.882" stroke="#0A84FF" stroke-width="5" stroke-linecap="round" stroke-linejoin="round"/>
<line x1="1805.35" y1="791.118" x2="1878.12" y2="936.646" stroke="#C4C4C4" stroke-width="5" stroke-linecap="round" stroke-linejoin="round"/>
<rect x="1902" y="590" width="100" height="100" rx="50" fill="#0A84FF"/>
<rect x="1752" y="740" width="100" height="100" rx="50" fill="#0A84FF"/>
<rect x="1677" y="890" width="100" height="100" rx="50" fill="#0A84FF"/>
<rect x="1827" y="890" width="100" height="100" rx="50" fill="#C4C4C4"/>
<rect x="2052" y="740" width="100" height="100" rx="50" fill="#C4C4C4"/>
<line x1="1955.54" y1="1340" x2="2102" y2="1486.46" stroke="#C4C4C4" stroke-width="5" stroke-linecap="round" stroke-linejoin="round"/>
<line x1="1952" y1="1343.54" x2="1805.54" y2="1490" stroke="#0A84FF" stroke-width="5" stroke-linecap="round" stroke-linejoin="round"/>
<line x1="1803.12" y1="1493.35" x2="1730.35" y2="1638.88" stroke="#0A84FF" stroke-width="5" stroke-linecap="round" stroke-linejoin="round"/>
<line x1="1805.35" y1="1491.12" x2="1878.12" y2="1636.65" stroke="#C4C4C4" stroke-width="5" stroke-linecap="round" stroke-linejoin="round"/>
<rect x="1902" y="1290" width="100" height="100" rx="50" fill="#0A84FF"/>
<rect x="1752" y="1440" width="100" height="100" rx="50" fill="#0A84FF"/>
<rect x="1677" y="1590" width="100" height="100" rx="50" fill="#0A84FF"/>
<rect x="1827" y="1590" width="100" height="100" rx="50" fill="#C4C4C4"/>
<rect x="2052" y="1440" width="100" height="100" rx="50" fill="#C4C4C4"/>
<line x1="1105.54" y1="1340" x2="1252" y2="1486.46" stroke="#0A84FF" stroke-width="5" stroke-linecap="round" stroke-linejoin="round"/>
<line x1="1102" y1="1343.54" x2="955.536" y2="1490" stroke="#C4C4C4" stroke-width="5" stroke-linecap="round" stroke-linejoin="round"/>
<line x1="953.118" y1="1493.35" x2="880.354" y2="1638.88" stroke="#C4C4C4" stroke-width="5" stroke-linecap="round" stroke-linejoin="round"/>
<line x1="955.354" y1="1491.12" x2="1028.12" y2="1636.65" stroke="#C4C4C4" stroke-width="5" stroke-linecap="round" stroke-linejoin="round"/>
<line x1="1253.12" y1="1493.35" x2="1180.35" y2="1638.88" stroke="#0A84FF" stroke-width="5" stroke-linecap="round" stroke-linejoin="round"/>
<line x1="1255.35" y1="1491.12" x2="1328.12" y2="1636.65" stroke="#C4C4C4" stroke-width="5" stroke-linecap="round" stroke-linejoin="round"/>
<rect x="1052" y="1290" width="100" height="100" rx="50" fill="#0A84FF"/>
<rect x="902" y="1440" width="100" height="100" rx="50" fill="#C4C4C4"/>
<rect x="1127" y="1590" width="100" height="100" rx="50" fill="#0A84FF"/>
<rect x="1277" y="1590" width="100" height="100" rx="50" fill="#C4C4C4"/>
<rect x="827" y="1590" width="100" height="100" rx="50" fill="#C4C4C4"/>
<rect x="977" y="1590" width="100" height="100" rx="50" fill="#C4C4C4"/>
<rect x="1202" y="1440" width="100" height="100" rx="50" fill="#0A84FF"/>
<line x1="1105.54" y1="640" x2="1252" y2="786.464" stroke="#0A84FF" stroke-width="5" stroke-linecap="round" stroke-linejoin="round"/>
<line x1="1102" y1="643.536" x2="955.536" y2="790" stroke="#C4C4C4" stroke-width="5" stroke-linecap="round" stroke-linejoin="round"/>
<line x1="953.118" y1="793.354" x2="880.354" y2="938.882" stroke="#C4C4C4" stroke-width="5" stroke-linecap="round" stroke-linejoin="round"/>
<line x1="955.354" y1="791.118" x2="1028.12" y2="936.646" stroke="#C4C4C4" stroke-width="5" stroke-linecap="round" stroke-linejoin="round"/>
<line x1="1253.12" y1="793.354" x2="1180.35" y2="938.882" stroke="#0A84FF" stroke-width="5" stroke-linecap="round" stroke-linejoin="round"/>
<line x1="1255.35" y1="791.118" x2="1328.12" y2="936.646" stroke="#C4C4C4" stroke-width="5" stroke-linecap="round" stroke-linejoin="round"/>
<rect x="1052" y="590" width="100" height="100" rx="50" fill="#0A84FF"/>
<rect x="902" y="740" width="100" height="100" rx="50" fill="#C4C4C4"/>
<rect x="1127" y="890" width="100" height="100" rx="50" fill="#0A84FF"/>
<rect x="1277" y="890" width="100" height="100" rx="50" fill="#C4C4C4"/>
<rect x="827" y="890" width="100" height="100" rx="50" fill="#C4C4C4"/>
<rect x="977" y="890" width="100" height="100" rx="50" fill="#C4C4C4"/>
<rect x="1202" y="740" width="100" height="100" rx="50" fill="#0A84FF"/>
<line x1="1105.54" y1="140" x2="1252" y2="286.464" stroke="#C4C4C4" stroke-width="5" stroke-linecap="round" stroke-linejoin="round"/>
<line x1="1102" y1="143.536" x2="955.536" y2="290" stroke="#0A84FF" stroke-width="5" stroke-linecap="round" stroke-linejoin="round"/>
<line x1="953.118" y1="293.354" x2="880.354" y2="438.882" stroke="#C4C4C4" stroke-width="5" stroke-linecap="round" stroke-linejoin="round"/>
<line x1="955.354" y1="291.118" x2="1028.12" y2="436.646" stroke="#0A84FF" stroke-width="5" stroke-linecap="round" stroke-linejoin="round"/>
<rect x="1052" y="90" width="100" height="100" rx="50" fill="#0A84FF"/>
<rect x="902" y="240" width="100" height="100" rx="50" fill="#0A84FF"/>
<rect x="827" y="390" width="100" height="100" rx="50" fill="#C4C4C4"/>
<rect x="977" y="390" width="100" height="100" rx="50" fill="#0A84FF"/>
<rect x="1202" y="240" width="100" height="100" rx="50" fill="#C4C4C4"/>
<line x1="455.536" y1="1340" x2="602" y2="1486.46" stroke="#C4C4C4" stroke-width="5" stroke-linecap="round" stroke-linejoin="round"/>
<line x1="452" y1="1343.54" x2="305.536" y2="1490" stroke="#0A84FF" stroke-width="5" stroke-linecap="round" stroke-linejoin="round"/>
<line x1="303.118" y1="1493.35" x2="230.354" y2="1638.88" stroke="#C4C4C4" stroke-width="5" stroke-linecap="round" stroke-linejoin="round"/>
<line x1="305.354" y1="1491.12" x2="378.118" y2="1636.65" stroke="#0A84FF" stroke-width="5" stroke-linecap="round" stroke-linejoin="round"/>
<rect x="402" y="1290" width="100" height="100" rx="50" fill="#0A84FF"/>
<rect x="252" y="1440" width="100" height="100" rx="50" fill="#0A84FF"/>
<rect x="177" y="1590" width="100" height="100" rx="50" fill="#C4C4C4"/>
<rect x="327" y="1590" width="100" height="100" rx="50" fill="#0A84FF"/>
<rect x="552" y="1440" width="100" height="100" rx="50" fill="#C4C4C4"/>
<line x1="455.536" y1="640" x2="602" y2="786.464" stroke="#0A84FF" stroke-width="5" stroke-linecap="round" stroke-linejoin="round"/>
<line x1="452" y1="643.536" x2="305.536" y2="790" stroke="#C4C4C4" stroke-width="5" stroke-linecap="round" stroke-linejoin="round"/>
<line x1="303.118" y1="793.354" x2="230.354" y2="938.882" stroke="#C4C4C4" stroke-width="5" stroke-linecap="round" stroke-linejoin="round"/>
<line x1="305.354" y1="791.118" x2="378.118" y2="936.646" stroke="#C4C4C4" stroke-width="5" stroke-linecap="round" stroke-linejoin="round"/>
<line x1="603.118" y1="793.354" x2="530.354" y2="938.882" stroke="#0A84FF" stroke-width="5" stroke-linecap="round" stroke-linejoin="round"/>
<line x1="605.354" y1="791.118" x2="678.118" y2="936.646" stroke="#C4C4C4" stroke-width="5" stroke-linecap="round" stroke-linejoin="round"/>
<rect x="402" y="590" width="100" height="100" rx="50" fill="#0A84FF"/>
<rect x="252" y="740" width="100" height="100" rx="50" fill="#C4C4C4"/>
<rect x="477" y="890" width="100" height="100" rx="50" fill="#0A84FF"/>
<rect x="627" y="890" width="100" height="100" rx="50" fill="#C4C4C4"/>
<rect x="177" y="890" width="100" height="100" rx="50" fill="#C4C4C4"/>
<rect x="327" y="890" width="100" height="100" rx="50" fill="#C4C4C4"/>
<rect x="552" y="740" width="100" height="100" rx="50" fill="#0A84FF"/>
<line x1="455.536" y1="140" x2="602" y2="286.464" stroke="#C4C4C4" stroke-width="5" stroke-linecap="round" stroke-linejoin="round"/>
<line x1="452" y1="143.536" x2="305.536" y2="290" stroke="#0A84FF" stroke-width="5" stroke-linecap="round" stroke-linejoin="round"/>
<line x1="303.118" y1="293.354" x2="230.354" y2="438.882" stroke="#0A84FF" stroke-width="5" stroke-linecap="round" stroke-linejoin="round"/>
<line x1="305.354" y1="291.118" x2="378.118" y2="436.646" stroke="#C4C4C4" stroke-width="5" stroke-linecap="round" stroke-linejoin="round"/>
<rect x="402" y="90" width="100" height="100" rx="50" fill="#0A84FF"/>
<rect x="252" y="240" width="100" height="100" rx="50" fill="#0A84FF"/>
<rect x="177" y="390" width="100" height="100" rx="50" fill="#0A84FF"/>
<rect x="327" y="390" width="100" height="100" rx="50" fill="#C4C4C4"/>
<rect x="552" y="240" width="100" height="100" rx="50" fill="#C4C4C4"/>
<circle cx="1567" cy="280" r="10" transform="rotate(-90 1567 280)" fill="#C4C4C4"/>
<circle cx="1527" cy="280" r="10" transform="rotate(-90 1527 280)" fill="#C4C4C4"/>
<circle cx="1487" cy="280" r="10" transform="rotate(-90 1487 280)" fill="#C4C4C4"/>
<circle cx="1567" cy="790" r="10" transform="rotate(-90 1567 790)" fill="#C4C4C4"/>
<circle cx="1527" cy="790" r="10" transform="rotate(-90 1527 790)" fill="#C4C4C4"/>
<circle cx="1487" cy="790" r="10" transform="rotate(-90 1487 790)" fill="#C4C4C4"/>
<circle cx="1557" cy="1490" r="10" transform="rotate(-90 1557 1490)" fill="#C4C4C4"/>
<circle cx="1517" cy="1490" r="10" transform="rotate(-90 1517 1490)" fill="#C4C4C4"/>
<circle cx="1477" cy="1490" r="10" transform="rotate(-90 1477 1490)" fill="#C4C4C4"/>
<circle cx="447" cy="1180" r="10" fill="#C4C4C4"/>
<circle cx="447" cy="1140" r="10" fill="#C4C4C4"/>
<circle cx="447" cy="1100" r="10" fill="#C4C4C4"/>
<circle cx="1957" cy="1180" r="10" fill="#C4C4C4"/>
<circle cx="1957" cy="1140" r="10" fill="#C4C4C4"/>
<circle cx="1957" cy="1100" r="10" fill="#C4C4C4"/>
<circle cx="1097" cy="1180" r="10" fill="#C4C4C4"/>
<circle cx="1097" cy="1140" r="10" fill="#C4C4C4"/>
<circle cx="1097" cy="1100" r="10" fill="#C4C4C4"/>
</svg>
