<svg width="284" height="319" viewBox="0 0 284 319" fill="none" xmlns="http://www.w3.org/2000/svg">
<path d="M173.355 216.355H110.645V279.066H173.355V216.355Z" fill="#FFD60A"/>
<path d="M215.472 139.472L272.527 139.473L215.472 82.4203L215.472 139.472Z" fill="#5E5CE6"/>
<path d="M151 75L208.053 132.053L208.054 75H151Z" fill="#BF5AF2"/>
<path d="M201 68L139.946 6.94557L78.8919 67.9993L201 68Z" fill="#4DD0E1"/>
<path d="M10 138L72.7112 75.2888H132.108L69.3977 137.999L10 138Z" fill="#FF375F"/>
<path d="M10.1186 209.119L137.882 209.118L137.882 81.355L10.1186 209.119Z" fill="#30D158"/>
<path d="M272.765 208.765L145 81L145.001 208.765L272.765 208.765Z" fill="#0A84FF"/>
<path d="M177.355 212.355V283.066H106.645V212.355H177.355Z" fill="white" fill-opacity="0.01"/>
<path d="M212.355 142.645L212.355 71.934L283.066 142.645L212.355 142.645Z" fill="white" fill-opacity="0.01"/>
<path d="M141 71.3553H211.711V142.066L141 71.3553Z" fill="white" fill-opacity="0.01"/>
<path d="M211 71H69.5786L140.289 0.289323L211 71Z" fill="white" fill-opacity="0.01"/>
<path d="M0 142H70.7107L141.421 71.2893H70.7107L0 142Z" fill="white" fill-opacity="0.01"/>
<path d="M0.289317 212.289L141.711 70.868L141.711 212.289L0.289317 212.289Z" fill="white" fill-opacity="0.01"/>
<path d="M283.421 212.421H142V71L283.421 212.421Z" fill="white" fill-opacity="0.01"/>
</svg>
