<svg width="284" height="319" viewBox="0 0 284 319" fill="none" xmlns="http://www.w3.org/2000/svg">
<path d="M173.355 216.355L110.645 216.355L110.645 279.066L173.355 279.066L173.355 216.355Z" fill="#FFD60A"/>
<path d="M215.472 138.472L272.527 138.473L215.472 81.4203L215.472 138.472Z" fill="#5E5CE6"/>
<path d="M151 75L208.053 132.053L208.054 75H151Z" fill="#BF5AF2"/>
<path d="M202 67L140.946 5.94557L79.8919 66.9993L202 67Z" fill="#4DD0E1"/>
<path d="M10 138L72.7112 75.2888H132.108L69.3977 137.999L10 138Z" fill="#FF375F"/>
<path d="M11.1186 209.119L138.882 209.118L138.882 81.355L11.1186 209.119Z" fill="#30D158"/>
<path d="M273.765 208.765L146 81L146.001 208.765L273.765 208.765Z" fill="#0A84FF"/>
<path d="M177.355 212.355V283.066H106.645V212.355H177.355Z" fill="white" fill-opacity="0.01"/>
<path d="M212.645 141.645L212.645 70.934L283.355 141.645L212.645 141.645Z" fill="white" fill-opacity="0.01"/>
<path d="M142 71.3553H212.711V142.066L142 71.3553Z" fill="white" fill-opacity="0.01"/>
<path d="M212 71H70.5786L141.289 0.289323L212 71Z" fill="white" fill-opacity="0.01"/>
<path d="M0 142H70.7107L141.421 71.2893H70.7107L0 142Z" fill="white" fill-opacity="0.01"/>
<path d="M0.289317 212.289L141.711 70.868L141.711 212.289L0.289317 212.289Z" fill="white" fill-opacity="0.01"/>
<path d="M283.421 212.421H142V71L283.421 212.421Z" fill="white" fill-opacity="0.01"/>
</svg>
