<?xml version="1.0" encoding="UTF-8"?>
<svg width="1200px" height="1200px" viewBox="0 0 1200 1200" version="1.1" xmlns="http://www.w3.org/2000/svg" xmlns:xlink="http://www.w3.org/1999/xlink">
    <g stroke="none" stroke-width="1" fill="none" fill-rule="evenodd">
        <polygon fill-opacity="0.08" fill="#0a84ff" transform="translate(134.584149, 103.966685) rotate(-21.000000) translate(-134.584149, -103.966685) " points="134.584149 153.966685 34.5841491 53.9666852 234.584149 53.9666852"></polygon>
        <polygon fill-opacity="0.08" fill="#bf5af2" points="928 559 828 459 1028 459"></polygon>
        <polygon fill-opacity="0.08" fill="#0a84ff" points="1053 960 953 860 1153 860"></polygon>
        <polygon fill-opacity="0.08" fill="#30d158" transform="translate(508.211947, 125.702452) rotate(61.000000) translate(-508.211947, -125.702452) " points="508.211947 175.702452 408.211947 75.7024517 608.211947 75.7024517"></polygon>
        <polygon fill-opacity="0.08" fill="#0a84ff" points="700 104 650 154 700 204 750 154"></polygon>
        <polygon fill-opacity="0.08" fill="#bf5af2" points="118 241.092879 68 291.092879 118 341.092879 168 291.092879"></polygon>
        <polygon fill-opacity="0.08" fill="#0a84ff" points="500 305 450 355 500 405 550 355"></polygon>
        <polygon fill-opacity="0.08" fill="#30d158" points="85 545 35 595 85 645 135 595"></polygon>
        <polygon fill-opacity="0.08" fill="#0a84ff" points="728 300 678 350 728 400 778 350"></polygon>
        <polygon fill-opacity="0.08" fill="#0a84ff" points="1003 3 953 53 1003 103 1053 53"></polygon>
        <polygon fill-opacity="0.08" fill="#30d158" points="686 990 636 1040 686 1090 736 1040"></polygon>
        <polygon fill-opacity="0.08" fill="#0a84ff" points="135 1095 85 1145 135 1195 185 1145"></polygon>
        <polygon fill-opacity="0.08" fill="#bf5af2" transform="translate(600.636424, 491.636424) rotate(55.000000) translate(-600.636424, -491.636424) " points="600.636424 441.636424 550.636424 491.636424 600.636424 541.636424 650.636424 491.636424"></polygon>
        <polygon fill-opacity="0.08" fill="#30d158" points="675 766 625 816 675 866 725 816"></polygon>
        <polygon fill-opacity="0.08" fill="#0a84ff" transform="translate(953.000000, 255.000000) rotate(-37.000000) translate(-953.000000, -255.000000) " points="978 255 928 305 928 205"></polygon>
        <polygon fill-opacity="0.08" fill="#0a84ff" transform="translate(1078.000000, 372.000000) rotate(-83.000000) translate(-1078.000000, -372.000000) " points="1103 372 1053 422 1053 322"></polygon>
        <polygon fill-opacity="0.08" fill="#0a84ff" transform="translate(486.000000, 1090.000000) rotate(-38.000000) translate(-486.000000, -1090.000000) " points="511 1090 461 1140 461 1040"></polygon>
        <polygon fill-opacity="0.08" fill="#30d158" transform="translate(315.227336, 75.792075) rotate(-38.000000) translate(-315.227336, -75.792075) " points="340.227336 75.7920746 290.227336 125.792075 290.227336 25.7920746"></polygon>
        <polygon fill-opacity="0.08" fill="#0a84ff" points="1103 76 1153 126 1153 226 1103 176"></polygon>
        <polygon fill-opacity="0.08" fill="#0a84ff" transform="translate(625.000000, 645.000000) rotate(-250.000000) translate(-625.000000, -645.000000) " points="600 570 650 620 650 720 600 670"></polygon>
        <polygon fill-opacity="0.08" fill="#30d158" points="778 520 828 570 828 670 778 620"></polygon>
        <polygon fill-opacity="0.08" fill="#bf5af2" points="411 445 461 495 461 595 411 545"></polygon>
        <polygon fill-opacity="0.08" fill="#30d158" transform="translate(85.000000, 960.000000) rotate(-29.000000) translate(-85.000000, -960.000000) " points="60 885 110 935 110 1035 60 985"></polygon>
        <polygon fill-opacity="0.08" fill="#0a84ff" transform="translate(886.226214, 974.716719) rotate(-29.000000) translate(-886.226214, -974.716719) " points="861.226214 899.716719 911.226214 949.716719 911.226214 1049.71672 861.226214 999.716719"></polygon>
        <polygon fill-opacity="0.08" fill="#bf5af2" transform="translate(245.018957, 421.627678) rotate(-309.000000) translate(-245.018957, -421.627678) " points="220.018957 346.627678 270.018957 396.627678 270.018957 496.627678 220.018957 446.627678"></polygon>
        <polygon fill-opacity="0.08" fill="#0a84ff" transform="translate(319.000000, 226.000000) rotate(-270.000000) translate(-319.000000, -226.000000) " points="294 151 344 201 344 301 294 251"></polygon>
        <polygon fill-opacity="0.08" fill="#0a84ff" points="461 885 511 935 411 935"></polygon>
        <polygon fill-opacity="0.08" fill="#0a84ff" transform="translate(214.788608, 840.880846) rotate(-65.000000) translate(-214.788608, -840.880846) " points="214.788608 815.880846 264.788608 865.880846 164.788608 865.880846"></polygon>
        <polygon fill-opacity="0.08" fill="#30d158" transform="translate(78.239876, 460.582536) rotate(3.000000) translate(-78.239876, -460.582536) " points="78.2398756 435.582536 128.239876 485.582536 28.2398756 485.582536"></polygon>
        <polygon fill-opacity="0.08" fill="#0a84ff" transform="translate(68.033009, 732.033009) rotate(45.000000) translate(-68.033009, -732.033009) " points="68.0330086 707.033009 118.033009 757.033009 18.0330086 757.033009"></polygon>
        <polygon fill-opacity="0.08" fill="#0a84ff" points="294 1002 344 1052 244 1052"></polygon>
        <polygon fill-opacity="0.08" fill="#30d158" points="1029 1040 1079 1090 979 1090"></polygon>
        <polygon fill-opacity="0.08" fill="#0a84ff" points="849 76 949 176 849 176"></polygon>
        <polygon fill-opacity="0.08" fill="#30d158" points="1029 570 1129 670 1029 670"></polygon>
        <polygon fill-opacity="0.08" fill="#0a84ff" transform="translate(848.710678, 765.710678) rotate(-159.000000) translate(-848.710678, -765.710678) " points="798.710678 715.710678 898.710678 815.710678 798.710678 815.710678"></polygon>
        <polygon fill-opacity="0.08" fill="#0a84ff" transform="translate(365.710678, 765.710678) rotate(-100.000000) translate(-365.710678, -765.710678) " points="315.710678 715.710678 415.710678 815.710678 315.710678 815.710678"></polygon>
        <polygon fill-opacity="0.08" fill="#bf5af2" transform="translate(258.710678, 599.710678) rotate(-240.000000) translate(-258.710678, -599.710678) " points="208.710678 549.710678 308.710678 649.710678 208.710678 649.710678"></polygon>
    </g>
</svg>